<?xml version="1.0" encoding="utf-8"?>
<svg xmlns="http://www.w3.org/2000/svg"
	xmlns:xlink="http://www.w3.org/1999/xlink"
	width="18px" height="17px">
<path fill="rgb(255,255,255)" fill-rule="evenodd" d="M 17.31 10.23C 17.31 10.23 10.56 10.23 10.56 10.23 10.56 10.23 10.56 16.98 10.56 16.98 10.56 16.98 7.56 16.98 7.56 16.98 7.56 16.98 7.56 10.23 7.56 10.23 7.56 10.23 0.81 10.23 0.81 10.23 0.81 10.23 0.81 7.23 0.81 7.23 0.81 7.23 7.56 7.23 7.56 7.23 7.56 7.23 7.56 0.48 7.56 0.48 7.56 0.48 10.56 0.48 10.56 0.48 10.56 0.48 10.56 7.23 10.56 7.23 10.56 7.23 17.31 7.23 17.31 7.23 17.31 7.23 17.31 10.23 17.31 10.23Z"/>
</svg>