<?xml version="1.0" encoding="utf-8"?>
<svg xmlns="http://www.w3.org/2000/svg"
	xmlns:xlink="http://www.w3.org/1999/xlink"
	width="14px" height="15px">
<path fill="rgb(255,255,255)" fill-rule="evenodd" d="M 13.95 12.51C 13.95 12.51 11.83 14.63 11.83 14.63 11.83 14.63 7.06 9.86 7.06 9.86 7.06 9.86 2.29 14.63 2.29 14.63 2.29 14.63 0.16 12.51 0.16 12.51 0.16 12.51 4.94 7.73 4.94 7.73 4.94 7.73 0.16 2.96 0.16 2.96 0.16 2.96 2.29 0.84 2.29 0.84 2.29 0.84 7.06 5.61 7.06 5.61 7.06 5.61 11.83 0.84 11.83 0.84 11.83 0.84 13.95 2.96 13.95 2.96 13.95 2.96 9.18 7.73 9.18 7.73 9.18 7.73 13.95 12.51 13.95 12.51Z"/>
</svg>