<?xml version="1.0" encoding="utf-8"?>
<svg xmlns="http://www.w3.org/2000/svg"
	xmlns:xlink="http://www.w3.org/1999/xlink"
	width="20px" height="20px">
<path fill="rgb(255,255,255)" fill-rule="evenodd" d="M19.19 16.36 C19.19 16.36 16.36 19.19 16.36 19.19 C16.36 19.19 10.00 12.83 10.00 12.83 C10.00 12.83 3.64 19.19 3.64 19.19 C3.64 19.19 0.81 16.36 0.81 16.36 C0.81 16.36 7.17 10.00 7.17 10.00 C7.17 10.00 0.81 3.64 0.81 3.64 C0.81 3.64 3.64 0.81 3.64 0.81 C3.64 0.81 10.00 7.17 10.00 7.17 C10.00 7.17 16.36 0.81 16.36 0.81 C16.36 0.81 19.19 3.64 19.19 3.64 C19.19 3.64 12.83 10.00 12.83 10.00 C12.83 10.00 19.19 16.36 19.19 16.36 Z"/>
</svg>