<svg xmlns="http://www.w3.org/2000/svg" xmlns:xlink="http://www.w3.org/1999/xlink" preserveAspectRatio="xMidYMid" width="252" height="55" viewBox="0 0 252 55">
  <defs>
    <style>

      .cls-2 {
        fill: #ffffff;
      }
    </style>
  </defs>
  <path d="M239.350,34.715 C239.350,34.715 249.764,34.715 249.764,34.715 C250.625,34.715 251.055,35.142 251.055,35.997 C251.055,35.997 251.055,40.786 251.055,40.786 C251.055,41.641 250.625,42.069 249.764,42.069 C249.764,42.069 231.691,42.069 231.691,42.069 C230.873,42.069 230.400,41.598 230.400,40.786 C230.400,40.786 230.400,13.423 230.400,13.423 C230.400,12.568 230.873,12.140 231.691,12.140 C231.691,12.140 249.764,12.140 249.764,12.140 C250.625,12.140 251.055,12.568 251.055,13.423 C251.055,13.423 251.055,18.211 251.055,18.211 C251.055,19.024 250.625,19.494 249.764,19.494 C249.764,19.494 239.350,19.494 239.350,19.494 C238.533,19.494 238.059,19.922 238.059,20.777 C238.059,20.777 238.059,22.145 238.059,22.145 C238.059,22.957 238.533,23.428 239.350,23.428 C239.350,23.428 246.021,23.428 246.021,23.428 C246.881,23.428 247.312,23.855 247.312,24.710 C247.312,24.710 247.312,29.499 247.312,29.499 C247.312,30.311 246.881,30.781 246.021,30.781 C246.021,30.781 239.350,30.781 239.350,30.781 C238.533,30.781 238.059,31.209 238.059,32.064 C238.059,32.064 238.059,33.432 238.059,33.432 C238.059,34.244 238.533,34.715 239.350,34.715 ZM232.751,40.780 C232.627,40.780 232.518,40.887 232.518,41.010 C232.518,41.133 232.627,41.241 232.751,41.241 C232.874,41.241 232.983,41.133 232.983,41.010 C232.983,40.887 232.874,40.780 232.751,40.780 ZM235.458,22.794 C235.365,22.794 235.303,22.856 235.303,22.948 C235.303,23.040 235.365,23.102 235.458,23.102 C235.551,23.102 235.613,23.040 235.613,22.948 C235.613,22.856 235.551,22.794 235.458,22.794 ZM242.668,25.715 C242.783,25.715 242.885,25.607 242.885,25.484 C242.885,25.254 242.556,25.165 242.374,25.346 C242.227,25.492 242.405,25.715 242.668,25.715 ZM241.894,24.485 C242.034,24.485 242.114,24.405 242.079,24.301 C241.980,24.009 241.647,23.961 241.647,24.239 C241.647,24.378 241.755,24.485 241.894,24.485 ZM241.415,26.484 C241.538,26.484 241.647,26.412 241.647,26.330 C241.647,26.248 241.538,26.176 241.415,26.176 C241.291,26.176 241.183,26.248 241.183,26.330 C241.183,26.412 241.291,26.484 241.415,26.484 ZM240.657,25.254 C240.796,25.254 240.877,25.173 240.842,25.069 C240.743,24.777 240.409,24.730 240.409,25.008 C240.409,25.146 240.517,25.254 240.657,25.254 ZM239.806,24.024 C239.880,24.024 239.945,23.916 239.945,23.793 C239.945,23.547 239.767,23.478 239.589,23.655 C239.462,23.781 239.604,24.024 239.806,24.024 ZM224.721,42.069 C224.721,42.069 206.647,42.069 206.647,42.069 C205.830,42.069 205.356,41.598 205.356,40.786 C205.356,40.786 205.356,13.423 205.356,13.423 C205.356,12.568 205.830,12.140 206.647,12.140 C206.647,12.140 224.721,12.140 224.721,12.140 C225.581,12.140 226.011,12.568 226.011,13.423 C226.011,13.423 226.011,18.211 226.011,18.211 C226.011,19.024 225.581,19.494 224.721,19.494 C224.721,19.494 214.307,19.494 214.307,19.494 C213.489,19.494 213.016,19.922 213.016,20.777 C213.016,20.777 213.016,22.145 213.016,22.145 C213.016,22.957 213.489,23.428 214.307,23.428 C214.307,23.428 220.977,23.428 220.977,23.428 C221.838,23.428 222.268,23.855 222.268,24.710 C222.268,24.710 222.268,29.499 222.268,29.499 C222.268,30.311 221.838,30.781 220.977,30.781 C220.977,30.781 214.307,30.781 214.307,30.781 C213.489,30.781 213.016,31.209 213.016,32.064 C213.016,32.064 213.016,33.432 213.016,33.432 C213.016,34.244 213.489,34.715 214.307,34.715 C214.307,34.715 224.721,34.715 224.721,34.715 C225.581,34.715 226.011,35.142 226.011,35.997 C226.011,35.997 226.011,40.786 226.011,40.786 C226.011,41.641 225.581,42.069 224.721,42.069 ZM205.660,22.026 C205.520,22.026 205.440,22.106 205.475,22.210 C205.574,22.502 205.907,22.550 205.907,22.272 C205.907,22.133 205.799,22.026 205.660,22.026 ZM217.325,15.384 C217.400,15.384 217.465,15.277 217.465,15.154 C217.465,14.908 217.287,14.839 217.109,15.015 C216.982,15.142 217.124,15.384 217.325,15.384 ZM206.634,18.305 C206.542,18.305 206.480,18.367 206.480,18.459 C206.480,18.551 206.542,18.612 206.634,18.612 C206.727,18.612 206.789,18.551 206.789,18.459 C206.789,18.367 206.727,18.305 206.634,18.305 ZM209.945,33.794 C209.870,33.748 209.730,33.801 209.640,33.908 C209.450,34.138 209.559,34.323 209.883,34.323 C210.116,34.323 210.162,33.926 209.945,33.794 ZM209.853,39.396 C209.729,39.396 209.620,39.504 209.620,39.627 C209.620,39.750 209.729,39.857 209.853,39.857 C209.976,39.857 210.085,39.750 210.085,39.627 C210.085,39.504 209.976,39.396 209.853,39.396 ZM201.184,33.860 C201.184,34.662 200.610,37.925 197.684,40.255 C197.646,40.203 197.565,40.165 197.475,40.165 C197.351,40.165 197.243,40.236 197.243,40.318 C197.243,40.385 197.315,40.442 197.408,40.463 C195.663,41.752 193.147,42.710 189.522,42.710 C188.291,42.710 187.196,42.597 186.214,42.400 C186.240,42.375 186.258,42.347 186.258,42.317 C186.258,42.235 186.150,42.163 186.026,42.163 C185.905,42.163 185.800,42.232 185.796,42.312 C185.151,42.161 184.561,41.970 184.020,41.747 C183.998,41.732 183.971,41.721 183.941,41.713 C179.617,39.888 178.494,35.966 178.334,33.475 C178.290,32.705 178.678,32.235 179.452,32.064 C179.452,32.064 184.315,30.995 184.315,30.995 C185.176,30.824 185.649,31.209 185.735,32.107 C185.908,34.159 187.499,35.356 189.522,35.356 C191.631,35.356 193.180,34.116 192.922,32.962 C192.104,29.328 179.151,30.140 179.151,20.306 C179.109,19.024 179.883,11.456 189.522,11.456 C198.386,11.456 200.452,17.185 200.710,20.264 C200.754,21.033 200.366,21.504 199.591,21.675 C199.591,21.675 194.686,22.743 194.686,22.743 C193.826,22.914 193.395,22.530 193.266,21.675 C192.965,19.922 191.545,18.810 189.522,18.810 C187.844,18.810 186.811,19.793 186.983,20.777 C187.306,22.567 191.374,23.373 195.073,25.255 C194.992,25.259 194.922,25.364 194.922,25.484 C194.922,25.607 194.995,25.715 195.077,25.715 C195.160,25.715 195.232,25.607 195.232,25.484 C195.232,25.412 195.205,25.348 195.168,25.305 C198.323,26.929 201.184,29.350 201.184,33.860 ZM197.568,35.092 C197.642,35.092 197.707,34.984 197.707,34.861 C197.707,34.615 197.529,34.546 197.351,34.723 C197.224,34.849 197.367,35.092 197.568,35.092 ZM178.909,34.016 C178.786,34.016 178.677,34.124 178.677,34.246 C178.677,34.369 178.786,34.477 178.909,34.477 C179.033,34.477 179.141,34.369 179.141,34.246 C179.141,34.124 179.033,34.016 178.909,34.016 ZM180.008,33.201 C179.830,33.378 179.899,33.555 180.147,33.555 C180.271,33.555 180.379,33.490 180.379,33.416 C180.379,33.217 180.135,33.075 180.008,33.201 ZM183.087,40.472 C182.963,40.472 182.854,40.544 182.854,40.626 C182.854,40.708 182.963,40.780 183.087,40.780 C183.210,40.780 183.319,40.708 183.319,40.626 C183.319,40.544 183.210,40.472 183.087,40.472 ZM185.175,40.933 C185.082,40.933 185.021,40.995 185.021,41.087 C185.021,41.179 185.082,41.241 185.175,41.241 C185.268,41.241 185.330,41.179 185.330,41.087 C185.330,40.995 185.268,40.933 185.175,40.933 ZM187.341,41.241 C187.259,41.241 187.187,41.348 187.187,41.471 C187.187,41.594 187.259,41.702 187.341,41.702 C187.424,41.702 187.496,41.594 187.496,41.471 C187.496,41.348 187.424,41.241 187.341,41.241 ZM181.075,23.409 C180.967,23.409 180.851,23.448 180.797,23.501 C180.655,23.642 180.859,24.024 181.075,24.024 C181.292,24.024 181.495,23.642 181.354,23.501 C181.300,23.448 181.184,23.409 181.075,23.409 ZM181.539,21.411 C181.400,21.411 181.306,21.487 181.338,21.572 C181.374,21.664 181.463,21.734 181.547,21.734 C181.631,21.734 181.717,21.664 181.748,21.572 C181.777,21.487 181.679,21.411 181.539,21.411 ZM181.833,24.793 C181.694,24.793 181.613,24.873 181.648,24.977 C181.747,25.269 182.081,25.317 182.081,25.039 C182.081,24.900 181.973,24.793 181.833,24.793 ZM182.390,22.641 C182.308,22.641 182.236,22.748 182.236,22.871 C182.236,22.994 182.308,23.102 182.390,23.102 C182.473,23.102 182.545,22.994 182.545,22.871 C182.545,22.748 182.473,22.641 182.390,22.641 ZM185.330,18.951 C185.237,18.951 185.175,19.013 185.175,19.105 C185.175,19.197 185.237,19.259 185.330,19.259 C185.423,19.259 185.485,19.197 185.485,19.105 C185.485,19.013 185.423,18.951 185.330,18.951 ZM195.928,26.637 C195.804,26.637 195.696,26.709 195.696,26.791 C195.696,26.873 195.804,26.945 195.928,26.945 C196.052,26.945 196.160,26.873 196.160,26.791 C196.160,26.709 196.052,26.637 195.928,26.637 ZM195.696,32.248 C195.696,32.386 195.776,32.480 195.866,32.448 C195.959,32.414 196.036,32.320 196.036,32.240 C196.036,32.161 195.959,32.070 195.866,32.041 C195.776,32.012 195.696,32.110 195.696,32.248 ZM196.779,27.867 C196.686,27.867 196.624,27.929 196.624,28.021 C196.624,28.113 196.686,28.174 196.779,28.174 C196.872,28.174 196.934,28.113 196.934,28.021 C196.934,27.929 196.872,27.867 196.779,27.867 ZM196.702,33.401 C196.578,33.401 196.470,33.473 196.470,33.555 C196.470,33.637 196.578,33.708 196.702,33.708 C196.825,33.708 196.934,33.637 196.934,33.555 C196.934,33.473 196.825,33.401 196.702,33.401 ZM196.562,39.247 C196.918,39.542 197.232,39.169 196.903,38.843 C196.702,38.643 196.647,38.641 196.493,38.827 C196.359,38.989 196.377,39.094 196.562,39.247 ZM196.238,35.860 C196.361,35.860 196.470,35.753 196.470,35.630 C196.470,35.384 196.292,35.315 196.114,35.492 C195.928,35.676 195.990,35.860 196.238,35.860 ZM195.866,38.013 C195.940,38.013 196.005,37.905 196.005,37.782 C196.005,37.536 195.828,37.467 195.650,37.644 C195.523,37.770 195.665,38.013 195.866,38.013 ZM195.402,34.600 C195.495,34.567 195.572,34.472 195.572,34.393 C195.572,34.313 195.495,34.222 195.402,34.193 C195.312,34.164 195.232,34.262 195.232,34.400 C195.232,34.539 195.312,34.633 195.402,34.600 ZM194.536,38.781 C194.659,38.781 194.768,38.710 194.768,38.627 C194.768,38.545 194.659,38.474 194.536,38.474 C194.412,38.474 194.304,38.545 194.304,38.627 C194.304,38.710 194.412,38.781 194.536,38.781 ZM193.391,39.596 C193.565,39.423 193.453,39.089 193.221,39.089 C193.145,39.089 193.034,39.165 192.976,39.258 C192.814,39.519 193.173,39.812 193.391,39.596 ZM193.097,24.916 C192.994,24.813 192.906,24.823 192.834,24.946 C192.771,25.054 192.790,25.195 192.880,25.285 C192.983,25.387 193.071,25.377 193.143,25.254 C193.206,25.146 193.187,25.005 193.097,24.916 ZM193.375,33.708 C193.293,33.708 193.221,33.816 193.221,33.939 C193.221,34.062 193.293,34.170 193.375,34.170 C193.458,34.170 193.530,34.062 193.530,33.939 C193.530,33.816 193.458,33.708 193.375,33.708 ZM193.839,26.176 C193.757,26.176 193.685,26.284 193.685,26.407 C193.685,26.530 193.757,26.637 193.839,26.637 C193.922,26.637 193.994,26.530 193.994,26.407 C193.994,26.284 193.922,26.176 193.839,26.176 ZM193.933,35.061 C193.890,35.129 193.917,35.284 193.994,35.407 C194.100,35.576 194.176,35.587 194.311,35.453 C194.404,35.361 194.439,35.195 194.385,35.107 C194.262,34.908 194.045,34.885 193.933,35.061 ZM194.520,27.406 C194.381,27.406 194.300,27.487 194.335,27.590 C194.434,27.882 194.768,27.930 194.768,27.652 C194.768,27.514 194.659,27.406 194.520,27.406 ZM194.613,32.940 C194.520,32.940 194.458,33.001 194.458,33.094 C194.458,33.186 194.520,33.247 194.613,33.247 C194.706,33.247 194.768,33.186 194.768,33.094 C194.768,33.001 194.706,32.940 194.613,32.940 ZM195.000,36.322 C194.876,36.322 194.768,36.393 194.768,36.475 C194.768,36.557 194.876,36.629 195.000,36.629 C195.124,36.629 195.232,36.557 195.232,36.475 C195.232,36.393 195.124,36.322 195.000,36.322 ZM165.905,54.580 C165.303,54.998 164.486,54.924 163.969,54.405 C163.969,54.405 158.653,49.057 158.653,49.057 C154.283,52.638 149.146,54.999 142.936,54.999 C132.662,54.999 124.919,49.057 124.919,39.612 C124.919,39.612 124.919,39.459 124.919,39.459 C124.919,32.680 128.599,27.881 135.346,24.834 C132.739,21.177 131.589,17.826 131.589,14.169 C131.589,14.169 131.589,14.017 131.589,14.017 C131.589,6.704 137.492,0.001 147.843,0.001 C156.966,0.001 162.946,5.942 162.946,13.407 C162.946,13.407 162.946,13.560 162.946,13.560 C162.946,20.720 158.346,24.910 151.676,27.500 C151.676,27.500 158.806,34.584 158.806,34.584 C160.325,32.222 161.844,29.578 163.314,26.797 C163.705,26.056 164.633,25.778 165.372,26.180 C165.372,26.180 171.355,29.442 171.355,29.442 C172.089,29.842 172.355,30.759 171.946,31.486 C170.069,34.821 167.999,38.279 165.630,41.440 C165.630,41.440 172.255,48.023 172.255,48.023 C172.918,48.682 172.822,49.776 172.053,50.309 C172.053,50.309 165.905,54.580 165.905,54.580 ZM131.736,37.859 C132.016,37.859 131.968,37.527 131.674,37.429 C131.570,37.394 131.489,37.475 131.489,37.613 C131.489,37.751 131.597,37.859 131.736,37.859 ZM126.074,42.932 C125.981,42.932 125.919,42.993 125.919,43.085 C125.919,43.178 125.981,43.239 126.074,43.239 C126.166,43.239 126.228,43.178 126.228,43.085 C126.228,42.993 126.166,42.932 126.074,42.932 ZM131.721,31.864 C131.597,31.864 131.489,31.936 131.489,32.017 C131.489,32.100 131.597,32.171 131.721,32.171 C131.845,32.171 131.953,32.100 131.953,32.017 C131.953,31.936 131.845,31.864 131.721,31.864 ZM149.080,48.694 C149.253,48.587 149.142,48.312 148.925,48.312 C148.842,48.312 148.752,48.367 148.701,48.450 C148.589,48.632 148.879,48.818 149.080,48.694 ZM148.453,45.307 C148.542,45.357 148.634,45.333 148.685,45.245 C148.736,45.158 148.712,45.065 148.624,45.014 C148.535,44.964 148.443,44.988 148.391,45.076 C148.340,45.164 148.365,45.256 148.453,45.307 ZM138.714,49.849 C138.807,49.849 138.869,49.788 138.869,49.695 C138.869,49.603 138.807,49.542 138.714,49.542 C138.621,49.542 138.559,49.603 138.559,49.695 C138.559,49.788 138.621,49.849 138.714,49.849 ZM137.476,50.771 C137.559,50.771 137.631,50.664 137.631,50.541 C137.631,50.418 137.559,50.310 137.476,50.310 C137.394,50.310 137.321,50.418 137.321,50.541 C137.321,50.664 137.394,50.771 137.476,50.771 ZM135.357,9.574 C135.274,9.574 135.202,9.682 135.202,9.805 C135.202,9.928 135.274,10.036 135.357,10.036 C135.439,10.036 135.511,9.928 135.511,9.805 C135.511,9.682 135.439,9.574 135.357,9.574 ZM136.873,27.098 C136.780,27.098 136.684,27.154 136.633,27.237 C136.528,27.406 136.777,27.593 136.919,27.452 C137.070,27.303 137.043,27.098 136.873,27.098 ZM138.521,25.738 C138.366,25.705 138.292,25.763 138.332,25.884 C138.415,26.130 138.756,26.178 138.768,25.946 C138.772,25.862 138.660,25.767 138.521,25.738 ZM139.333,21.503 C139.206,21.629 139.348,21.872 139.549,21.872 C139.624,21.872 139.689,21.764 139.689,21.641 C139.689,21.395 139.511,21.326 139.333,21.503 ZM139.225,32.556 C139.225,32.694 139.305,32.788 139.395,32.755 C139.487,32.722 139.565,32.628 139.565,32.548 C139.565,32.468 139.487,32.377 139.395,32.348 C139.305,32.320 139.225,32.417 139.225,32.556 ZM140.075,2.964 C139.936,2.964 139.842,3.040 139.874,3.126 C139.910,3.218 139.999,3.287 140.083,3.287 C140.167,3.287 140.253,3.218 140.284,3.126 C140.313,3.040 140.215,2.964 140.075,2.964 ZM152.673,14.245 C152.673,14.245 152.673,14.093 152.673,14.093 C152.673,11.046 150.603,9.142 147.613,9.142 C144.469,9.142 142.399,11.351 142.399,14.550 C142.399,14.550 142.399,14.702 142.399,14.702 C142.399,17.064 143.319,18.816 145.543,21.330 C150.220,19.578 152.673,17.597 152.673,14.245 ZM141.786,31.994 C138.259,33.822 136.803,36.412 136.803,39.002 C136.803,39.002 136.803,39.155 136.803,39.155 C136.803,42.887 139.946,45.401 144.316,45.401 C146.999,45.401 149.606,44.258 152.060,42.354 C152.060,42.354 141.786,31.994 141.786,31.994 ZM164.443,34.170 C164.347,34.170 164.232,34.277 164.179,34.416 C164.073,34.692 164.456,34.987 164.660,34.784 C164.832,34.614 164.675,34.170 164.443,34.170 ZM164.861,45.237 C164.861,45.319 164.969,45.391 165.093,45.391 C165.217,45.391 165.325,45.319 165.325,45.237 C165.325,45.155 165.217,45.084 165.093,45.084 C164.969,45.084 164.861,45.155 164.861,45.237 ZM165.557,43.085 C165.433,43.085 165.325,43.157 165.325,43.239 C165.325,43.321 165.433,43.393 165.557,43.393 C165.681,43.393 165.789,43.321 165.789,43.239 C165.789,43.157 165.681,43.085 165.557,43.085 ZM166.408,44.315 C166.315,44.315 166.254,44.377 166.254,44.469 C166.254,44.561 166.315,44.623 166.408,44.623 C166.501,44.623 166.563,44.561 166.563,44.469 C166.563,44.377 166.501,44.315 166.408,44.315 ZM167.244,45.545 C167.104,45.545 167.023,45.626 167.059,45.729 C167.158,46.021 167.491,46.069 167.491,45.791 C167.491,45.653 167.383,45.545 167.244,45.545 ZM111.104,32.663 C111.104,32.663 109.038,32.663 109.038,32.663 C108.221,32.663 107.747,33.090 107.747,33.945 C107.747,33.945 107.747,40.786 107.747,40.786 C107.747,41.641 107.317,42.069 106.456,42.069 C106.456,42.069 101.637,42.069 101.637,42.069 C100.819,42.069 100.346,41.598 100.346,40.786 C100.346,40.786 100.346,13.466 100.346,13.466 C100.346,12.611 100.776,12.183 101.637,12.140 C101.637,12.140 111.104,12.140 111.104,12.140 C118.763,12.140 121.862,15.390 121.862,22.401 C121.862,29.413 118.763,32.663 111.104,32.663 ZM104.274,15.285 C104.184,15.257 104.104,15.354 104.104,15.493 C104.104,15.631 104.184,15.725 104.274,15.692 C104.367,15.659 104.444,15.565 104.444,15.485 C104.444,15.405 104.367,15.314 104.274,15.285 ZM107.662,14.955 C107.570,14.955 107.508,15.016 107.508,15.108 C107.508,15.201 107.570,15.262 107.662,15.262 C107.755,15.262 107.817,15.201 107.817,15.108 C107.817,15.016 107.755,14.955 107.662,14.955 ZM108.389,16.123 C108.204,16.307 108.266,16.492 108.513,16.492 C108.637,16.492 108.745,16.384 108.745,16.261 C108.745,16.015 108.567,15.946 108.389,16.123 ZM109.627,15.201 C109.569,15.259 109.519,15.400 109.519,15.508 C109.519,15.739 109.924,15.796 110.056,15.585 C110.161,15.416 109.767,15.063 109.627,15.201 ZM110.215,13.142 C110.085,13.116 109.983,13.202 109.983,13.340 C109.983,13.500 110.076,13.570 110.246,13.539 C110.576,13.479 110.556,13.212 110.215,13.142 ZM111.362,19.494 C111.362,19.494 109.038,19.494 109.038,19.494 C108.350,19.494 107.909,19.801 107.786,20.408 C107.760,20.366 107.722,20.335 107.662,20.335 C107.570,20.335 107.508,20.396 107.508,20.488 C107.508,20.581 107.570,20.642 107.662,20.642 C107.703,20.642 107.734,20.626 107.760,20.605 C107.755,20.662 107.747,20.716 107.747,20.777 C107.747,20.777 107.747,24.026 107.747,24.026 C107.747,24.838 108.221,25.309 109.038,25.309 C109.038,25.309 111.362,25.309 111.362,25.309 C113.428,25.309 114.460,25.052 114.460,22.401 C114.460,19.751 113.428,19.494 111.362,19.494 ZM114.377,19.566 C114.238,19.566 114.157,19.647 114.192,19.751 C114.291,20.043 114.625,20.090 114.625,19.812 C114.625,19.674 114.516,19.566 114.377,19.566 ZM119.607,25.285 C119.706,25.577 120.040,25.624 120.040,25.346 C120.040,25.208 119.931,25.100 119.792,25.100 C119.653,25.100 119.572,25.181 119.607,25.285 ZM115.321,21.257 C115.445,21.257 115.553,21.150 115.553,21.026 C115.553,20.904 115.445,20.796 115.321,20.796 C115.197,20.796 115.089,20.904 115.089,21.026 C115.089,21.150 115.197,21.257 115.321,21.257 ZM93.677,42.069 C93.677,42.069 88.858,42.069 88.858,42.069 C88.040,42.069 87.567,41.598 87.567,40.786 C87.567,40.786 87.567,23.941 87.567,23.941 C87.567,23.641 87.180,23.599 87.094,23.898 C87.094,23.898 82.919,40.957 82.919,40.957 C82.747,41.684 82.274,42.069 81.499,42.069 C81.499,42.069 79.967,42.069 79.967,42.069 C79.924,42.033 79.871,42.009 79.813,42.009 C79.772,42.009 79.721,42.033 79.673,42.069 C79.673,42.069 78.659,42.069 78.659,42.069 C77.885,42.069 77.411,41.684 77.239,40.957 C77.239,40.957 73.065,23.898 73.065,23.898 C72.979,23.599 72.592,23.641 72.592,23.941 C72.592,23.941 72.592,40.786 72.592,40.786 C72.592,41.598 72.161,42.069 71.301,42.069 C71.301,42.069 66.481,42.069 66.481,42.069 C65.620,42.069 65.190,41.598 65.190,40.786 C65.190,40.786 65.190,13.423 65.190,13.423 C65.190,12.568 65.620,12.140 66.481,12.140 C66.481,12.140 75.389,12.140 75.389,12.140 C76.163,12.140 76.594,12.568 76.766,13.295 C76.766,13.295 79.821,25.736 79.821,25.736 C79.907,26.164 80.251,26.164 80.337,25.736 C80.337,25.736 83.393,13.295 83.393,13.295 C83.565,12.568 83.995,12.140 84.770,12.140 C84.770,12.140 93.677,12.140 93.677,12.140 C94.538,12.140 94.968,12.568 94.968,13.423 C94.968,13.423 94.968,40.786 94.968,40.786 C94.968,41.598 94.538,42.069 93.677,42.069 ZM89.731,26.507 C89.641,26.478 89.561,26.576 89.561,26.714 C89.561,26.852 89.641,26.947 89.731,26.914 C89.824,26.881 89.901,26.786 89.901,26.707 C89.901,26.627 89.824,26.536 89.731,26.507 ZM90.442,13.442 C90.269,13.299 90.187,13.310 90.032,13.494 C89.873,13.684 89.885,13.742 90.102,13.824 C90.458,13.959 90.717,13.668 90.442,13.442 ZM90.551,22.333 C90.411,22.333 90.330,22.414 90.366,22.518 C90.465,22.810 90.798,22.857 90.798,22.579 C90.798,22.441 90.690,22.333 90.551,22.333 ZM91.881,21.411 C91.799,21.411 91.727,21.518 91.727,21.641 C91.727,21.764 91.799,21.872 91.881,21.872 C91.964,21.872 92.036,21.764 92.036,21.641 C92.036,21.518 91.964,21.411 91.881,21.411 ZM92.268,25.254 C92.392,25.254 92.500,25.189 92.500,25.115 C92.500,24.916 92.256,24.774 92.129,24.900 C91.951,25.077 92.021,25.254 92.268,25.254 ZM92.500,19.566 C92.500,19.474 92.438,19.412 92.345,19.412 C92.253,19.412 92.191,19.474 92.191,19.566 C92.191,19.658 92.253,19.720 92.345,19.720 C92.438,19.720 92.500,19.658 92.500,19.566 ZM92.384,13.763 C92.270,13.722 92.191,13.832 92.191,14.032 C92.191,14.232 92.270,14.342 92.384,14.301 C92.488,14.264 92.578,14.140 92.578,14.032 C92.578,13.925 92.488,13.800 92.384,13.763 ZM58.522,42.069 C58.522,42.069 53.788,42.069 53.788,42.069 C52.970,42.069 52.497,41.598 52.497,40.786 C52.497,40.786 52.497,13.423 52.497,13.423 C52.497,13.034 52.599,12.739 52.782,12.527 C52.823,12.606 52.902,12.664 52.978,12.664 C53.062,12.664 53.148,12.595 53.179,12.503 C53.206,12.422 53.117,12.351 52.989,12.344 C53.197,12.210 53.464,12.140 53.788,12.140 C53.788,12.140 58.522,12.140 58.522,12.140 C59.382,12.140 59.812,12.568 59.812,13.423 C59.812,13.423 59.812,40.786 59.812,40.786 C59.812,41.598 59.382,42.069 58.522,42.069 ZM53.303,41.033 C53.121,41.214 53.187,41.394 53.434,41.394 C53.558,41.394 53.666,41.287 53.666,41.164 C53.666,40.918 53.485,40.853 53.303,41.033 ZM54.440,31.249 C54.356,31.249 54.267,31.304 54.216,31.387 C54.104,31.569 54.393,31.755 54.595,31.631 C54.768,31.524 54.656,31.249 54.440,31.249 ZM55.906,30.480 C55.792,30.296 55.566,30.288 55.455,30.465 C55.405,30.544 55.461,30.680 55.585,30.781 C55.820,30.974 56.068,30.742 55.906,30.480 ZM57.093,29.650 C57.005,29.600 56.883,29.635 56.826,29.727 C56.683,29.958 56.891,30.105 57.086,29.912 C57.194,29.804 57.197,29.709 57.093,29.650 ZM58.401,12.341 C58.261,12.341 58.153,12.449 58.153,12.587 C58.153,12.726 58.234,12.806 58.339,12.771 C58.633,12.673 58.680,12.341 58.401,12.341 ZM45.828,42.069 C45.828,42.069 41.008,42.069 41.008,42.069 C40.191,42.069 39.718,41.598 39.718,40.786 C39.718,40.786 39.718,34.031 39.718,34.031 C39.718,33.176 39.287,32.748 38.427,32.748 C38.427,32.748 34.295,32.748 34.295,32.748 C33.478,32.748 33.005,33.176 33.005,34.031 C33.005,34.031 33.005,40.786 33.005,40.786 C33.005,41.598 32.574,42.069 31.714,42.069 C31.714,42.069 26.894,42.069 26.894,42.069 C26.076,42.069 25.603,41.598 25.603,40.786 C25.603,40.786 25.603,35.034 25.603,35.034 C25.826,35.157 25.963,34.958 25.773,34.769 C25.710,34.707 25.653,34.684 25.603,34.692 C25.603,34.692 25.603,23.986 25.603,23.986 C25.614,23.997 25.622,24.008 25.634,24.018 C25.869,24.211 26.117,23.978 25.955,23.717 C25.869,23.577 25.719,23.540 25.603,23.605 C25.603,23.605 25.603,13.423 25.603,13.423 C25.603,12.568 26.034,12.140 26.894,12.140 C26.894,12.140 31.714,12.140 31.714,12.140 C32.532,12.140 33.005,12.611 33.005,13.423 C33.005,13.423 33.005,20.819 33.005,20.819 C32.919,20.800 32.844,20.893 32.844,21.026 C32.844,21.160 32.919,21.250 33.005,21.227 C33.005,21.227 33.005,24.112 33.005,24.112 C33.005,24.924 33.478,25.394 34.295,25.394 C34.295,25.394 38.427,25.394 38.427,25.394 C39.287,25.394 39.718,24.924 39.718,24.112 C39.718,24.112 39.718,13.423 39.718,13.423 C39.718,12.611 40.191,12.140 41.008,12.140 C41.008,12.140 45.828,12.140 45.828,12.140 C46.689,12.140 47.119,12.568 47.119,13.423 C47.119,13.423 47.119,40.786 47.119,40.786 C47.119,41.598 46.689,42.069 45.828,42.069 ZM32.565,39.734 C32.704,39.596 32.706,39.506 32.573,39.373 C32.437,39.238 32.371,39.258 32.293,39.458 C32.162,39.796 32.330,39.967 32.565,39.734 ZM31.542,30.173 C31.635,30.173 31.697,30.111 31.697,30.019 C31.697,29.927 31.635,29.865 31.542,29.865 C31.449,29.865 31.387,29.927 31.387,30.019 C31.387,30.111 31.449,30.173 31.542,30.173 ZM31.807,27.620 C31.865,27.563 31.915,27.421 31.915,27.314 C31.915,27.083 31.510,27.025 31.378,27.237 C31.273,27.406 31.667,27.758 31.807,27.620 ZM31.915,21.872 C31.915,21.790 31.807,21.718 31.683,21.718 C31.559,21.718 31.451,21.790 31.451,21.872 C31.451,21.954 31.559,22.026 31.683,22.026 C31.807,22.026 31.915,21.954 31.915,21.872 ZM25.895,35.246 C25.755,35.246 25.661,35.322 25.694,35.407 C25.729,35.499 25.818,35.568 25.902,35.568 C25.987,35.568 26.073,35.499 26.104,35.407 C26.132,35.322 26.034,35.246 25.895,35.246 ZM26.423,35.860 C26.299,35.860 26.191,35.968 26.191,36.091 C26.191,36.214 26.299,36.322 26.423,36.322 C26.547,36.322 26.655,36.214 26.655,36.091 C26.655,35.968 26.547,35.860 26.423,35.860 ZM26.887,39.704 C27.011,39.704 27.119,39.596 27.119,39.473 C27.119,39.350 27.011,39.242 26.887,39.242 C26.763,39.242 26.655,39.350 26.655,39.473 C26.655,39.596 26.763,39.704 26.887,39.704 ZM26.763,22.887 C26.616,23.032 26.794,23.255 27.057,23.255 C27.173,23.255 27.274,23.148 27.274,23.025 C27.274,22.794 26.946,22.705 26.763,22.887 ZM27.365,17.722 C27.210,17.722 27.025,17.794 26.974,17.875 C26.832,18.102 27.194,18.483 27.457,18.384 C27.795,18.256 27.720,17.722 27.365,17.722 ZM28.357,22.026 C28.264,22.026 28.202,22.087 28.202,22.179 C28.202,22.272 28.264,22.333 28.357,22.333 C28.450,22.333 28.511,22.272 28.511,22.179 C28.511,22.087 28.450,22.026 28.357,22.026 ZM29.763,32.786 C29.639,32.786 29.531,32.858 29.531,32.940 C29.531,33.022 29.639,33.094 29.763,33.094 C29.886,33.094 29.995,33.022 29.995,32.940 C29.995,32.858 29.886,32.786 29.763,32.786 ZM30.235,30.957 C30.318,30.957 30.405,30.888 30.436,30.795 C30.464,30.710 30.366,30.634 30.227,30.634 C30.087,30.634 29.993,30.710 30.026,30.795 C30.061,30.888 30.150,30.957 30.235,30.957 ZM30.445,16.953 C30.322,16.953 30.213,17.061 30.213,17.184 C30.213,17.307 30.322,17.414 30.445,17.414 C30.569,17.414 30.678,17.307 30.678,17.184 C30.678,17.061 30.569,16.953 30.445,16.953 ZM30.141,28.005 C30.035,28.174 30.429,28.527 30.569,28.389 C30.628,28.331 30.678,28.190 30.678,28.082 C30.678,27.852 30.273,27.794 30.141,28.005 ZM31.142,35.092 C31.234,35.092 31.296,35.030 31.296,34.938 C31.296,34.846 31.234,34.784 31.142,34.784 C31.049,34.784 30.987,34.846 30.987,34.938 C30.987,35.030 31.049,35.092 31.142,35.092 ZM31.072,18.321 C30.961,18.503 31.250,18.689 31.451,18.565 C31.624,18.458 31.513,18.183 31.296,18.183 C31.213,18.183 31.123,18.238 31.072,18.321 ZM31.760,16.031 C31.685,16.031 31.574,16.107 31.517,16.200 C31.354,16.461 31.713,16.754 31.931,16.538 C32.105,16.365 31.993,16.031 31.760,16.031 ZM31.869,35.953 C31.683,36.137 31.745,36.322 31.993,36.322 C32.116,36.322 32.225,36.214 32.225,36.091 C32.225,35.845 32.047,35.776 31.869,35.953 ZM32.315,31.403 C32.408,31.403 32.470,31.341 32.470,31.249 C32.470,31.157 32.408,31.095 32.315,31.095 C32.223,31.095 32.161,31.157 32.161,31.249 C32.161,31.341 32.223,31.403 32.315,31.403 ZM32.256,28.513 C32.355,28.805 32.689,28.852 32.689,28.574 C32.689,28.436 32.581,28.328 32.441,28.328 C32.302,28.328 32.221,28.409 32.256,28.513 ZM32.550,17.437 C32.460,17.409 32.379,17.506 32.379,17.645 C32.379,17.783 32.460,17.877 32.550,17.845 C32.642,17.811 32.720,17.717 32.720,17.637 C32.720,17.557 32.642,17.467 32.550,17.437 ZM32.770,22.963 C32.648,22.764 32.431,22.741 32.319,22.917 C32.275,22.985 32.303,23.140 32.379,23.263 C32.485,23.432 32.562,23.443 32.697,23.309 C32.789,23.217 32.825,23.052 32.770,22.963 ZM32.780,28.943 C32.697,28.943 32.625,29.051 32.625,29.174 C32.625,29.297 32.697,29.404 32.780,29.404 C32.862,29.404 32.934,29.297 32.934,29.174 C32.934,29.051 32.862,28.943 32.780,28.943 ZM32.780,40.011 C32.697,40.011 32.625,40.119 32.625,40.242 C32.625,40.364 32.697,40.472 32.780,40.472 C32.862,40.472 32.934,40.364 32.934,40.242 C32.934,40.119 32.862,40.011 32.780,40.011 ZM33.308,29.712 C33.215,29.712 33.153,29.773 33.153,29.865 C33.153,29.958 33.215,30.019 33.308,30.019 C33.401,30.019 33.462,29.958 33.462,29.865 C33.462,29.773 33.401,29.712 33.308,29.712 ZM33.679,27.560 C33.540,27.560 33.459,27.640 33.494,27.744 C33.593,28.036 33.927,28.084 33.927,27.806 C33.927,27.667 33.818,27.560 33.679,27.560 ZM36.647,26.484 C36.555,26.484 36.493,26.545 36.493,26.637 C36.493,26.730 36.555,26.791 36.647,26.791 C36.740,26.791 36.802,26.730 36.802,26.637 C36.802,26.545 36.740,26.484 36.647,26.484 ZM38.272,29.097 C38.148,29.097 38.040,29.169 38.040,29.251 C38.040,29.333 38.148,29.404 38.272,29.404 C38.396,29.404 38.504,29.333 38.504,29.251 C38.504,29.169 38.396,29.097 38.272,29.097 ZM39.031,26.914 C38.901,26.706 38.504,26.776 38.504,27.006 C38.504,27.329 38.828,27.485 38.983,27.237 C39.050,27.129 39.072,26.980 39.031,26.914 ZM44.569,36.290 C44.863,36.192 44.911,35.860 44.631,35.860 C44.492,35.860 44.383,35.968 44.383,36.107 C44.383,36.245 44.465,36.325 44.569,36.290 ZM44.229,27.406 C44.311,27.406 44.383,27.298 44.383,27.175 C44.383,27.052 44.311,26.945 44.229,26.945 C44.146,26.945 44.074,27.052 44.074,27.175 C44.074,27.298 44.146,27.406 44.229,27.406 ZM42.341,41.271 C42.444,41.374 42.532,41.364 42.604,41.241 C42.667,41.133 42.648,40.992 42.558,40.903 C42.455,40.800 42.367,40.810 42.295,40.933 C42.231,41.041 42.251,41.182 42.341,41.271 ZM41.134,41.702 C41.041,41.702 40.980,41.763 40.980,41.856 C40.980,41.948 41.041,42.009 41.134,42.009 C41.227,42.009 41.289,41.948 41.289,41.856 C41.289,41.763 41.227,41.702 41.134,41.702 ZM42.527,35.246 C42.451,35.246 42.340,35.322 42.283,35.415 C42.121,35.676 42.479,35.969 42.697,35.753 C42.871,35.580 42.759,35.246 42.527,35.246 ZM43.316,36.652 C43.226,36.624 43.146,36.721 43.146,36.860 C43.146,36.998 43.226,37.092 43.316,37.060 C43.409,37.026 43.486,36.932 43.486,36.852 C43.486,36.772 43.409,36.682 43.316,36.652 ZM43.692,12.633 C43.586,12.802 43.980,13.155 44.120,13.017 C44.179,12.959 44.229,12.818 44.229,12.710 C44.229,12.480 43.824,12.422 43.692,12.633 ZM44.383,21.565 C44.291,21.565 44.229,21.626 44.229,21.718 C44.229,21.811 44.291,21.872 44.383,21.872 C44.476,21.872 44.538,21.811 44.538,21.718 C44.538,21.626 44.476,21.565 44.383,21.565 ZM44.708,24.816 C44.618,24.787 44.538,24.885 44.538,25.023 C44.538,25.162 44.618,25.256 44.708,25.223 C44.801,25.190 44.878,25.095 44.878,25.016 C44.878,24.936 44.801,24.845 44.708,24.816 ZM47.029,20.227 C47.203,20.054 47.091,19.720 46.859,19.720 C46.783,19.720 46.672,19.797 46.615,19.889 C46.453,20.150 46.811,20.443 47.029,20.227 ZM7.402,24.026 C7.402,24.026 7.402,30.183 7.402,30.183 C7.402,33.475 7.617,35.484 10.801,35.484 C13.168,35.484 13.813,34.373 14.072,32.406 C14.201,31.508 14.889,30.952 15.750,31.166 C15.750,31.166 20.613,32.235 20.613,32.235 C21.215,32.363 21.602,32.834 21.559,33.475 C21.456,35.419 20.904,38.388 18.516,40.460 C18.514,40.454 18.516,40.448 18.514,40.441 C18.415,40.149 18.081,40.102 18.081,40.380 C18.081,40.514 18.185,40.618 18.319,40.624 C17.654,41.164 16.856,41.636 15.898,42.004 C15.863,41.919 15.778,41.856 15.683,41.856 C15.560,41.856 15.451,41.963 15.451,42.086 C15.451,42.111 15.458,42.134 15.467,42.157 C14.192,42.584 12.658,42.838 10.801,42.838 C3.574,42.838 1.168,39.039 0.378,35.820 C0.403,35.834 0.430,35.840 0.459,35.830 C0.552,35.796 0.629,35.702 0.629,35.622 C0.629,35.543 0.552,35.452 0.459,35.422 C0.396,35.402 0.338,35.447 0.309,35.523 C0.048,34.324 0.001,33.226 0.000,32.467 C0.019,32.472 0.037,32.479 0.057,32.479 C0.181,32.479 0.289,32.371 0.289,32.248 C0.289,32.125 0.181,32.017 0.057,32.017 C0.037,32.017 0.019,32.024 0.000,32.030 C0.000,32.030 0.000,21.760 0.000,21.760 C0.000,18.938 0.603,11.371 10.801,11.371 C19.967,11.371 21.387,17.485 21.559,20.777 C21.602,21.375 21.215,21.846 20.613,21.974 C20.613,21.974 16.096,22.984 16.096,22.984 C16.101,22.975 16.107,22.966 16.111,22.956 C16.140,22.870 16.041,22.794 15.902,22.794 C15.763,22.794 15.668,22.870 15.701,22.956 C15.715,22.992 15.738,23.023 15.765,23.049 C14.897,23.176 14.240,22.591 14.115,21.717 C13.900,19.836 13.125,18.725 10.801,18.725 C10.392,18.725 10.034,18.759 9.717,18.824 C9.719,18.814 9.727,18.808 9.727,18.798 C9.727,18.705 9.665,18.644 9.572,18.644 C9.479,18.644 9.417,18.705 9.417,18.798 C9.417,18.837 9.434,18.867 9.454,18.893 C7.631,19.412 7.417,21.144 7.403,23.718 C7.312,23.719 7.251,23.779 7.251,23.870 C7.251,23.961 7.312,24.020 7.402,24.022 C7.402,24.024 7.402,24.025 7.402,24.026 ZM18.321,35.107 C18.405,35.107 18.492,35.038 18.522,34.946 C18.551,34.860 18.453,34.784 18.314,34.784 C18.174,34.784 18.080,34.860 18.113,34.946 C18.148,35.038 18.237,35.107 18.321,35.107 ZM15.451,16.953 C15.544,16.953 15.606,16.891 15.606,16.799 C15.606,16.707 15.544,16.646 15.451,16.646 C15.359,16.646 15.297,16.707 15.297,16.799 C15.297,16.891 15.359,16.953 15.451,16.953 ZM15.376,16.384 C15.550,16.211 15.438,15.877 15.206,15.877 C15.130,15.877 15.019,15.954 14.962,16.046 C14.800,16.307 15.159,16.600 15.376,16.384 ZM9.559,16.283 C9.853,16.400 10.013,16.278 9.871,16.046 C9.749,15.846 9.526,15.839 9.407,16.031 C9.353,16.117 9.420,16.227 9.559,16.283 ZM9.065,15.047 C9.162,14.794 9.048,14.647 8.754,14.647 C8.644,14.647 8.553,14.786 8.553,14.955 C8.553,15.308 8.939,15.378 9.065,15.047 ZM7.747,15.677 C7.778,15.508 7.708,15.416 7.547,15.416 C7.408,15.416 7.321,15.517 7.348,15.646 C7.419,15.985 7.686,16.005 7.747,15.677 ZM0.831,33.708 C0.954,33.708 1.063,33.644 1.063,33.570 C1.063,33.370 0.818,33.229 0.691,33.355 C0.514,33.532 0.583,33.708 0.831,33.708 ZM0.364,19.120 C0.222,19.353 0.382,19.474 0.676,19.357 C0.815,19.302 0.882,19.191 0.828,19.105 C0.709,18.913 0.486,18.921 0.364,19.120 ZM0.985,22.333 C0.862,22.333 0.753,22.441 0.753,22.564 C0.753,22.687 0.862,22.794 0.985,22.794 C1.109,22.794 1.217,22.687 1.217,22.564 C1.217,22.441 1.109,22.333 0.985,22.333 ZM0.985,27.867 C0.862,27.867 0.753,27.939 0.753,28.021 C0.753,28.103 0.862,28.174 0.985,28.174 C1.109,28.174 1.217,28.103 1.217,28.021 C1.217,27.939 1.109,27.867 0.985,27.867 ZM1.156,36.737 C0.978,36.913 1.047,37.090 1.295,37.090 C1.419,37.090 1.527,37.026 1.527,36.952 C1.527,36.752 1.283,36.610 1.156,36.737 ZM1.867,34.600 C1.764,34.498 1.676,34.508 1.604,34.631 C1.541,34.738 1.560,34.879 1.651,34.969 C1.754,35.071 1.842,35.061 1.914,34.938 C1.977,34.831 1.957,34.690 1.867,34.600 ZM2.332,36.045 C2.431,36.337 2.765,36.384 2.765,36.107 C2.765,35.968 2.656,35.860 2.517,35.860 C2.378,35.860 2.297,35.941 2.332,36.045 ZM2.672,19.412 C2.533,19.412 2.452,19.493 2.487,19.597 C2.586,19.889 2.919,19.936 2.919,19.658 C2.919,19.520 2.811,19.412 2.672,19.412 ZM2.873,33.801 C2.687,33.985 2.749,34.170 2.997,34.170 C3.120,34.170 3.229,34.062 3.229,33.939 C3.229,33.693 3.051,33.624 2.873,33.801 ZM3.848,35.092 C3.755,35.092 3.693,35.153 3.693,35.246 C3.693,35.338 3.755,35.399 3.848,35.399 C3.940,35.399 4.002,35.338 4.002,35.246 C4.002,35.153 3.940,35.092 3.848,35.092 ZM4.946,19.805 C4.871,19.759 4.730,19.812 4.641,19.920 C4.451,20.149 4.559,20.335 4.884,20.335 C5.116,20.335 5.163,19.938 4.946,19.805 ZM4.884,34.262 C4.737,34.408 4.915,34.631 5.178,34.631 C5.294,34.631 5.395,34.523 5.395,34.400 C5.395,34.170 5.067,34.081 4.884,34.262 ZM6.555,16.953 C6.416,16.953 6.321,17.029 6.354,17.114 C6.389,17.207 6.479,17.276 6.563,17.276 C6.647,17.276 6.733,17.207 6.764,17.114 C6.793,17.029 6.694,16.953 6.555,16.953 ZM6.725,25.823 C6.547,25.999 6.617,26.176 6.865,26.176 C6.988,26.176 7.097,26.112 7.097,26.038 C7.097,25.838 6.852,25.696 6.725,25.823 ZM7.023,40.165 C6.861,40.426 7.109,40.659 7.344,40.466 C7.468,40.364 7.524,40.228 7.474,40.149 C7.363,39.973 7.137,39.980 7.023,40.165 Z" id="path-1" class="cls-2" fill-rule="evenodd"/>
</svg>
