<svg xmlns="http://www.w3.org/2000/svg" xmlns:xlink="http://www.w3.org/1999/xlink" preserveAspectRatio="xMidYMid" width="295" height="58" viewBox="0 0 295 58">
  <defs>
    <style>

      .cls-2 {
        fill: #ffffff;
      }
    </style>
  </defs>
  <path d="M294.038,33.092 C293.990,33.948 293.559,34.444 292.601,34.444 C292.601,34.444 287.235,34.444 287.235,34.444 C286.325,34.444 285.847,33.948 285.798,33.092 C285.798,33.092 284.841,14.155 284.841,14.155 C284.792,13.253 285.367,12.803 286.277,12.803 C286.277,12.803 292.517,12.803 292.517,12.803 C292.536,12.869 292.581,12.940 292.651,12.994 C292.886,13.176 293.268,13.018 293.246,12.803 C293.246,12.803 293.559,12.803 293.559,12.803 C294.517,12.803 295.044,13.253 294.996,14.155 C294.996,14.155 294.038,33.092 294.038,33.092 ZM291.497,31.332 C291.808,31.332 291.755,30.983 291.428,30.879 C291.311,30.842 291.221,30.927 291.221,31.073 C291.221,31.219 291.342,31.332 291.497,31.332 ZM291.393,13.339 C291.151,13.479 291.273,13.987 291.548,13.987 C291.637,13.987 291.789,13.890 291.903,13.760 C292.149,13.480 291.738,13.139 291.393,13.339 ZM278.039,44.363 C278.039,44.363 257.920,44.363 257.920,44.363 C257.009,44.363 256.483,43.867 256.483,43.011 C256.483,43.011 256.483,14.155 256.483,14.155 C256.483,13.253 257.009,12.803 257.920,12.803 C257.920,12.803 278.039,12.803 278.039,12.803 C278.998,12.803 279.477,13.253 279.477,14.155 C279.477,14.155 279.477,19.205 279.477,19.205 C279.477,20.062 278.998,20.557 278.039,20.557 C278.039,20.557 266.447,20.557 266.447,20.557 C265.537,20.557 265.010,21.008 265.010,21.910 C265.010,21.910 265.010,23.353 265.010,23.353 C265.010,24.210 265.537,24.706 266.447,24.706 C266.447,24.706 273.872,24.706 273.872,24.706 C274.830,24.706 275.309,25.156 275.309,26.058 C275.309,26.058 275.309,31.108 275.309,31.108 C275.309,31.964 274.830,32.460 273.872,32.460 C273.872,32.460 266.447,32.460 266.447,32.460 C265.537,32.460 265.010,32.911 265.010,33.813 C265.010,33.813 265.010,35.256 265.010,35.256 C265.010,36.112 265.537,36.608 266.447,36.608 C266.447,36.608 278.039,36.608 278.039,36.608 C278.998,36.608 279.477,37.059 279.477,37.961 C279.477,37.961 279.477,43.011 279.477,43.011 C279.477,43.912 278.998,44.363 278.039,44.363 ZM259.100,43.004 C258.962,43.004 258.841,43.117 258.841,43.247 C258.841,43.377 258.962,43.490 259.100,43.490 C259.238,43.490 259.358,43.377 259.358,43.247 C259.358,43.117 259.238,43.004 259.100,43.004 ZM262.114,24.038 C262.011,24.038 261.942,24.102 261.942,24.200 C261.942,24.297 262.011,24.362 262.114,24.362 C262.217,24.362 262.286,24.297 262.286,24.200 C262.286,24.102 262.217,24.038 262.114,24.038 ZM270.140,27.118 C270.268,27.118 270.381,27.004 270.381,26.875 C270.381,26.631 270.016,26.538 269.813,26.729 C269.649,26.882 269.847,27.118 270.140,27.118 ZM269.279,25.821 C269.434,25.821 269.524,25.736 269.485,25.626 C269.374,25.318 269.003,25.268 269.003,25.561 C269.003,25.707 269.124,25.821 269.279,25.821 ZM268.745,27.928 C268.883,27.928 269.003,27.853 269.003,27.766 C269.003,27.680 268.883,27.604 268.745,27.604 C268.607,27.604 268.487,27.680 268.487,27.766 C268.487,27.853 268.607,27.928 268.745,27.928 ZM267.901,26.631 C268.056,26.631 268.146,26.546 268.107,26.437 C267.997,26.129 267.625,26.079 267.625,26.372 C267.625,26.518 267.746,26.631 267.901,26.631 ZM266.954,25.334 C267.036,25.334 267.109,25.221 267.109,25.091 C267.109,24.832 266.911,24.759 266.712,24.945 C266.571,25.079 266.730,25.334 266.954,25.334 ZM250.161,44.363 C250.161,44.363 230.042,44.363 230.042,44.363 C229.132,44.363 228.604,43.867 228.604,43.011 C228.604,43.011 228.604,14.155 228.604,14.155 C228.604,13.253 229.132,12.803 230.042,12.803 C230.042,12.803 250.161,12.803 250.161,12.803 C251.119,12.803 251.598,13.253 251.598,14.155 C251.598,14.155 251.598,19.205 251.598,19.205 C251.598,20.062 251.119,20.557 250.161,20.557 C250.161,20.557 238.569,20.557 238.569,20.557 C237.658,20.557 237.132,21.008 237.132,21.910 C237.132,21.910 237.132,23.353 237.132,23.353 C237.132,24.210 237.658,24.706 238.569,24.706 C238.569,24.706 245.993,24.706 245.993,24.706 C246.952,24.706 247.431,25.156 247.431,26.058 C247.431,26.058 247.431,31.108 247.431,31.108 C247.431,31.964 246.952,32.460 245.993,32.460 C245.993,32.460 238.569,32.460 238.569,32.460 C237.658,32.460 237.132,32.911 237.132,33.813 C237.132,33.813 237.132,35.256 237.132,35.256 C237.132,36.112 237.658,36.608 238.569,36.608 C238.569,36.608 250.161,36.608 250.161,36.608 C251.119,36.608 251.598,37.059 251.598,37.961 C251.598,37.961 251.598,43.011 251.598,43.011 C251.598,43.912 251.119,44.363 250.161,44.363 ZM228.942,23.227 C228.787,23.227 228.697,23.312 228.736,23.422 C228.846,23.730 229.218,23.780 229.218,23.487 C229.218,23.341 229.097,23.227 228.942,23.227 ZM241.928,16.224 C242.011,16.224 242.083,16.110 242.083,15.980 C242.083,15.721 241.885,15.648 241.687,15.835 C241.546,15.968 241.705,16.224 241.928,16.224 ZM230.027,19.304 C229.924,19.304 229.855,19.368 229.855,19.466 C229.855,19.563 229.924,19.628 230.027,19.628 C230.131,19.628 230.199,19.563 230.199,19.466 C230.199,19.368 230.131,19.304 230.027,19.304 ZM233.713,35.637 C233.629,35.589 233.473,35.644 233.373,35.758 C233.161,36.000 233.282,36.196 233.644,36.196 C233.902,36.196 233.954,35.776 233.713,35.637 ZM233.610,41.545 C233.472,41.545 233.351,41.658 233.351,41.788 C233.351,41.918 233.472,42.031 233.610,42.031 C233.747,42.031 233.868,41.918 233.868,41.788 C233.868,41.658 233.747,41.545 233.610,41.545 ZM223.959,35.707 C223.959,36.553 223.321,39.994 220.063,42.451 C220.021,42.396 219.931,42.356 219.831,42.356 C219.693,42.356 219.573,42.431 219.573,42.518 C219.573,42.588 219.653,42.648 219.756,42.670 C217.814,44.030 215.012,45.040 210.978,45.040 C209.607,45.040 208.388,44.921 207.295,44.712 C207.324,44.686 207.344,44.657 207.344,44.625 C207.344,44.539 207.224,44.463 207.086,44.463 C206.951,44.463 206.834,44.536 206.829,44.620 C206.112,44.461 205.455,44.259 204.853,44.024 C204.828,44.009 204.798,43.997 204.765,43.989 C199.951,42.064 198.702,37.928 198.523,35.301 C198.474,34.489 198.905,33.993 199.768,33.813 C199.768,33.813 205.181,32.686 205.181,32.686 C206.139,32.505 206.666,32.911 206.762,33.858 C206.954,36.022 208.726,37.285 210.978,37.285 C213.325,37.285 215.049,35.977 214.762,34.760 C213.851,30.927 199.433,31.784 199.433,21.414 C199.385,20.062 200.247,12.081 210.978,12.081 C220.845,12.081 223.145,18.123 223.432,21.369 C223.480,22.180 223.049,22.676 222.187,22.857 C222.187,22.857 216.726,23.984 216.726,23.984 C215.768,24.164 215.289,23.759 215.145,22.857 C214.810,21.008 213.229,19.836 210.978,19.836 C209.109,19.836 207.960,20.873 208.151,21.910 C208.511,23.798 213.039,24.648 217.157,26.633 C217.067,26.637 216.989,26.747 216.989,26.875 C216.989,27.004 217.070,27.118 217.162,27.118 C217.253,27.118 217.334,27.004 217.334,26.875 C217.334,26.798 217.304,26.730 217.262,26.685 C220.774,28.398 223.959,30.951 223.959,35.707 ZM219.934,37.006 C220.017,37.006 220.089,36.893 220.089,36.763 C220.089,36.504 219.891,36.431 219.693,36.617 C219.552,36.750 219.710,37.006 219.934,37.006 ZM199.163,35.871 C199.026,35.871 198.905,35.985 198.905,36.114 C198.905,36.244 199.026,36.358 199.163,36.358 C199.301,36.358 199.422,36.244 199.422,36.114 C199.422,35.985 199.301,35.871 199.163,35.871 ZM200.386,35.012 C200.188,35.199 200.266,35.385 200.541,35.385 C200.679,35.385 200.799,35.317 200.799,35.239 C200.799,35.028 200.528,34.879 200.386,35.012 ZM203.813,42.680 C203.676,42.680 203.555,42.755 203.555,42.842 C203.555,42.928 203.676,43.004 203.813,43.004 C203.951,43.004 204.072,42.928 204.072,42.842 C204.072,42.755 203.951,42.680 203.813,42.680 ZM206.139,43.166 C206.035,43.166 205.966,43.231 205.966,43.328 C205.966,43.425 206.035,43.490 206.139,43.490 C206.242,43.490 206.311,43.425 206.311,43.328 C206.311,43.231 206.242,43.166 206.139,43.166 ZM208.550,43.490 C208.458,43.490 208.378,43.604 208.378,43.733 C208.378,43.863 208.458,43.977 208.550,43.977 C208.642,43.977 208.722,43.863 208.722,43.733 C208.722,43.604 208.642,43.490 208.550,43.490 ZM201.575,24.686 C201.454,24.686 201.325,24.727 201.264,24.783 C201.107,24.932 201.333,25.334 201.575,25.334 C201.816,25.334 202.042,24.932 201.885,24.783 C201.824,24.727 201.695,24.686 201.575,24.686 ZM202.091,22.579 C201.936,22.579 201.831,22.659 201.867,22.749 C201.907,22.846 202.006,22.919 202.100,22.919 C202.193,22.919 202.289,22.846 202.324,22.749 C202.356,22.659 202.246,22.579 202.091,22.579 ZM202.418,26.145 C202.263,26.145 202.173,26.230 202.212,26.340 C202.323,26.647 202.694,26.698 202.694,26.404 C202.694,26.258 202.573,26.145 202.418,26.145 ZM203.038,23.876 C202.947,23.876 202.866,23.989 202.866,24.119 C202.866,24.248 202.947,24.362 203.038,24.362 C203.130,24.362 203.211,24.248 203.211,24.119 C203.211,23.989 203.130,23.876 203.038,23.876 ZM206.311,19.985 C206.208,19.985 206.139,20.050 206.139,20.147 C206.139,20.244 206.208,20.309 206.311,20.309 C206.414,20.309 206.483,20.244 206.483,20.147 C206.483,20.050 206.414,19.985 206.311,19.985 ZM218.109,28.090 C217.971,28.090 217.850,28.166 217.850,28.252 C217.850,28.339 217.971,28.414 218.109,28.414 C218.246,28.414 218.367,28.339 218.367,28.252 C218.367,28.166 218.246,28.090 218.109,28.090 ZM217.850,34.007 C217.850,34.153 217.940,34.252 218.040,34.218 C218.143,34.182 218.229,34.083 218.229,33.999 C218.229,33.915 218.143,33.819 218.040,33.788 C217.940,33.758 217.850,33.861 217.850,34.007 ZM219.056,29.387 C218.953,29.387 218.884,29.452 218.884,29.549 C218.884,29.646 218.953,29.711 219.056,29.711 C219.159,29.711 219.228,29.646 219.228,29.549 C219.228,29.452 219.159,29.387 219.056,29.387 ZM218.970,35.223 C218.832,35.223 218.712,35.298 218.712,35.385 C218.712,35.471 218.832,35.547 218.970,35.547 C219.108,35.547 219.228,35.471 219.228,35.385 C219.228,35.298 219.108,35.223 218.970,35.223 ZM218.815,41.388 C219.211,41.699 219.560,41.306 219.194,40.961 C218.970,40.751 218.909,40.749 218.737,40.945 C218.589,41.115 218.608,41.226 218.815,41.388 ZM218.453,37.817 C218.591,37.817 218.712,37.703 218.712,37.573 C218.712,37.314 218.514,37.241 218.315,37.428 C218.109,37.622 218.178,37.817 218.453,37.817 ZM218.040,40.086 C218.122,40.086 218.195,39.973 218.195,39.843 C218.195,39.583 217.997,39.511 217.799,39.697 C217.657,39.830 217.816,40.086 218.040,40.086 ZM217.523,36.487 C217.626,36.452 217.713,36.352 217.713,36.269 C217.713,36.184 217.626,36.089 217.523,36.058 C217.423,36.028 217.334,36.131 217.334,36.277 C217.334,36.422 217.423,36.522 217.523,36.487 ZM216.559,40.897 C216.696,40.897 216.817,40.821 216.817,40.734 C216.817,40.648 216.696,40.572 216.559,40.572 C216.421,40.572 216.300,40.648 216.300,40.734 C216.300,40.821 216.421,40.897 216.559,40.897 ZM215.284,41.756 C215.478,41.573 215.353,41.221 215.095,41.221 C215.010,41.221 214.887,41.302 214.823,41.399 C214.643,41.675 215.042,41.983 215.284,41.756 ZM214.957,26.275 C214.842,26.167 214.745,26.177 214.664,26.307 C214.594,26.421 214.615,26.569 214.716,26.664 C214.831,26.772 214.928,26.761 215.009,26.631 C215.079,26.518 215.057,26.369 214.957,26.275 ZM215.267,35.547 C215.175,35.547 215.095,35.661 215.095,35.790 C215.095,35.920 215.175,36.033 215.267,36.033 C215.359,36.033 215.439,35.920 215.439,35.790 C215.439,35.661 215.359,35.547 215.267,35.547 ZM215.784,27.604 C215.692,27.604 215.611,27.717 215.611,27.847 C215.611,27.977 215.692,28.090 215.784,28.090 C215.876,28.090 215.956,27.977 215.956,27.847 C215.956,27.717 215.876,27.604 215.784,27.604 ZM215.888,36.974 C215.840,37.045 215.870,37.209 215.956,37.338 C216.073,37.517 216.159,37.528 216.309,37.387 C216.412,37.290 216.452,37.115 216.391,37.022 C216.254,36.812 216.013,36.788 215.888,36.974 ZM216.541,28.901 C216.386,28.901 216.296,28.986 216.335,29.095 C216.446,29.403 216.817,29.453 216.817,29.160 C216.817,29.014 216.696,28.901 216.541,28.901 ZM216.645,34.737 C216.541,34.737 216.473,34.801 216.473,34.899 C216.473,34.996 216.541,35.061 216.645,35.061 C216.748,35.061 216.817,34.996 216.817,34.899 C216.817,34.801 216.748,34.737 216.645,34.737 ZM217.075,38.303 C216.938,38.303 216.817,38.378 216.817,38.465 C216.817,38.551 216.938,38.627 217.075,38.627 C217.213,38.627 217.334,38.551 217.334,38.465 C217.334,38.378 217.213,38.303 217.075,38.303 ZM184.687,57.557 C184.017,57.998 183.107,57.920 182.532,57.372 C182.532,57.372 176.614,51.733 176.614,51.733 C171.749,55.509 166.031,57.999 159.118,57.999 C147.681,57.999 139.061,51.733 139.061,41.772 C139.061,41.772 139.061,41.612 139.061,41.612 C139.061,34.462 143.158,29.401 150.668,26.188 C147.766,22.333 146.486,18.798 146.486,14.942 C146.486,14.942 146.486,14.782 146.486,14.782 C146.486,7.070 153.058,0.001 164.580,0.001 C174.736,0.001 181.393,6.266 181.393,14.139 C181.393,14.139 181.393,14.299 181.393,14.299 C181.393,21.850 176.273,26.269 168.847,29.000 C168.847,29.000 176.785,36.471 176.785,36.471 C178.475,33.980 180.166,31.191 181.802,28.259 C182.238,27.477 183.271,27.184 184.094,27.608 C184.094,27.608 190.754,31.048 190.754,31.048 C191.571,31.470 191.867,32.437 191.412,33.203 C189.323,36.720 187.018,40.367 184.380,43.700 C184.380,43.700 191.756,50.642 191.756,50.642 C192.494,51.337 192.387,52.491 191.531,53.054 C191.531,53.054 184.687,57.557 184.687,57.557 ZM146.650,39.924 C146.961,39.924 146.908,39.574 146.581,39.471 C146.465,39.434 146.374,39.519 146.374,39.665 C146.374,39.811 146.495,39.924 146.650,39.924 ZM140.346,45.273 C140.243,45.273 140.174,45.338 140.174,45.435 C140.174,45.533 140.243,45.598 140.346,45.598 C140.450,45.598 140.519,45.533 140.519,45.435 C140.519,45.338 140.450,45.273 140.346,45.273 ZM146.633,33.602 C146.495,33.602 146.374,33.677 146.374,33.764 C146.374,33.850 146.495,33.926 146.633,33.926 C146.771,33.926 146.891,33.850 146.891,33.764 C146.891,33.677 146.771,33.602 146.633,33.602 ZM165.957,51.350 C166.150,51.237 166.026,50.947 165.785,50.947 C165.692,50.947 165.592,51.005 165.535,51.093 C165.411,51.285 165.733,51.481 165.957,51.350 ZM165.260,47.778 C165.358,47.831 165.461,47.805 165.518,47.713 C165.575,47.621 165.547,47.523 165.449,47.470 C165.351,47.416 165.247,47.442 165.191,47.535 C165.134,47.627 165.161,47.724 165.260,47.778 ZM154.417,52.568 C154.521,52.568 154.590,52.503 154.590,52.406 C154.590,52.309 154.521,52.244 154.417,52.244 C154.314,52.244 154.245,52.309 154.245,52.406 C154.245,52.503 154.314,52.568 154.417,52.568 ZM153.040,53.541 C153.131,53.541 153.212,53.427 153.212,53.298 C153.212,53.168 153.131,53.054 153.040,53.054 C152.948,53.054 152.867,53.168 152.867,53.298 C152.867,53.427 152.948,53.541 153.040,53.541 ZM150.680,10.097 C150.588,10.097 150.508,10.210 150.508,10.340 C150.508,10.470 150.588,10.583 150.680,10.583 C150.772,10.583 150.852,10.470 150.852,10.340 C150.852,10.210 150.772,10.097 150.680,10.097 ZM152.368,28.577 C152.265,28.577 152.158,28.635 152.101,28.723 C151.985,28.901 152.262,29.098 152.420,28.949 C152.587,28.792 152.557,28.577 152.368,28.577 ZM154.202,27.142 C154.030,27.108 153.947,27.168 153.993,27.296 C154.085,27.555 154.465,27.606 154.478,27.361 C154.482,27.272 154.357,27.173 154.202,27.142 ZM155.106,22.676 C154.965,22.809 155.124,23.065 155.348,23.065 C155.430,23.065 155.503,22.952 155.503,22.822 C155.503,22.563 155.305,22.490 155.106,22.676 ZM154.986,34.331 C154.986,34.477 155.075,34.576 155.175,34.542 C155.279,34.507 155.365,34.407 155.365,34.323 C155.365,34.239 155.279,34.143 155.175,34.112 C155.075,34.082 154.986,34.185 154.986,34.331 ZM155.933,3.126 C155.778,3.126 155.673,3.206 155.709,3.296 C155.749,3.394 155.848,3.467 155.942,3.467 C156.035,3.467 156.131,3.394 156.166,3.296 C156.198,3.206 156.088,3.126 155.933,3.126 ZM169.957,15.022 C169.957,15.022 169.957,14.862 169.957,14.862 C169.957,11.649 167.652,9.641 164.324,9.641 C160.825,9.641 158.520,11.970 158.520,15.344 C158.520,15.344 158.520,15.504 158.520,15.504 C158.520,17.995 159.544,19.842 162.019,22.493 C167.226,20.646 169.957,18.557 169.957,15.022 ZM157.837,33.739 C153.911,35.667 152.290,38.398 152.290,41.130 C152.290,41.130 152.290,41.290 152.290,41.290 C152.290,45.226 155.789,47.877 160.654,47.877 C163.641,47.877 166.543,46.672 169.274,44.664 C169.274,44.664 157.837,33.739 157.837,33.739 ZM183.060,36.033 C182.953,36.033 182.824,36.147 182.765,36.293 C182.647,36.585 183.074,36.895 183.301,36.682 C183.492,36.502 183.318,36.033 183.060,36.033 ZM183.783,47.543 C183.645,47.543 183.525,47.619 183.525,47.705 C183.525,47.791 183.645,47.867 183.783,47.867 C183.921,47.867 184.041,47.791 184.041,47.705 C184.041,47.619 183.921,47.543 183.783,47.543 ZM184.300,45.435 C184.162,45.435 184.041,45.511 184.041,45.598 C184.041,45.684 184.162,45.760 184.300,45.760 C184.438,45.760 184.558,45.684 184.558,45.598 C184.558,45.511 184.438,45.435 184.300,45.435 ZM185.247,46.732 C185.144,46.732 185.075,46.797 185.075,46.894 C185.075,46.992 185.144,47.057 185.247,47.057 C185.350,47.057 185.419,46.992 185.419,46.894 C185.419,46.797 185.350,46.732 185.247,46.732 ZM186.177,48.029 C186.022,48.029 185.932,48.114 185.971,48.224 C186.081,48.532 186.453,48.582 186.453,48.289 C186.453,48.143 186.332,48.029 186.177,48.029 ZM123.682,34.444 C123.682,34.444 121.382,34.444 121.382,34.444 C120.472,34.444 119.945,34.895 119.945,35.797 C119.945,35.797 119.945,43.011 119.945,43.011 C119.945,43.912 119.466,44.363 118.508,44.363 C118.508,44.363 113.143,44.363 113.143,44.363 C112.233,44.363 111.706,43.867 111.706,43.011 C111.706,43.011 111.706,14.200 111.706,14.200 C111.706,13.299 112.185,12.848 113.143,12.803 C113.143,12.803 123.682,12.803 123.682,12.803 C132.208,12.803 135.658,16.229 135.658,23.623 C135.658,31.018 132.208,34.444 123.682,34.444 ZM116.079,16.119 C115.978,16.089 115.889,16.192 115.889,16.338 C115.889,16.484 115.978,16.583 116.079,16.548 C116.182,16.513 116.268,16.414 116.268,16.330 C116.268,16.246 116.182,16.150 116.079,16.119 ZM119.851,15.770 C119.747,15.770 119.678,15.835 119.678,15.932 C119.678,16.030 119.747,16.095 119.851,16.095 C119.954,16.095 120.023,16.030 120.023,15.932 C120.023,15.835 119.954,15.770 119.851,15.770 ZM120.660,17.002 C120.453,17.197 120.522,17.391 120.798,17.391 C120.936,17.391 121.056,17.278 121.056,17.148 C121.056,16.889 120.858,16.816 120.660,17.002 ZM122.038,16.031 C121.973,16.091 121.917,16.240 121.917,16.354 C121.917,16.597 122.368,16.658 122.515,16.435 C122.633,16.257 122.194,15.885 122.038,16.031 ZM122.693,13.859 C122.547,13.831 122.434,13.922 122.434,14.068 C122.434,14.236 122.537,14.310 122.727,14.277 C123.095,14.214 123.071,13.933 122.693,13.859 ZM123.969,20.557 C123.969,20.557 121.382,20.557 121.382,20.557 C120.616,20.557 120.126,20.881 119.989,21.521 C119.960,21.477 119.917,21.444 119.851,21.444 C119.747,21.444 119.678,21.509 119.678,21.606 C119.678,21.703 119.747,21.768 119.851,21.768 C119.896,21.768 119.930,21.751 119.959,21.729 C119.954,21.789 119.945,21.846 119.945,21.910 C119.945,21.910 119.945,25.337 119.945,25.337 C119.945,26.193 120.472,26.689 121.382,26.689 C121.382,26.689 123.969,26.689 123.969,26.689 C126.269,26.689 127.418,26.419 127.418,23.623 C127.418,20.828 126.269,20.557 123.969,20.557 ZM127.326,20.633 C127.170,20.633 127.080,20.719 127.120,20.828 C127.230,21.136 127.601,21.186 127.601,20.893 C127.601,20.747 127.481,20.633 127.326,20.633 ZM133.148,26.664 C133.258,26.972 133.629,27.022 133.629,26.729 C133.629,26.583 133.509,26.469 133.354,26.469 C133.199,26.469 133.109,26.554 133.148,26.664 ZM128.376,22.417 C128.514,22.417 128.634,22.303 128.634,22.173 C128.634,22.044 128.514,21.930 128.376,21.930 C128.238,21.930 128.118,22.044 128.118,22.173 C128.118,22.303 128.238,22.417 128.376,22.417 ZM104.283,44.363 C104.283,44.363 98.917,44.363 98.917,44.363 C98.007,44.363 97.480,43.867 97.480,43.011 C97.480,43.011 97.480,25.246 97.480,25.246 C97.480,24.931 97.049,24.886 96.954,25.202 C96.954,25.202 92.307,43.191 92.307,43.191 C92.115,43.958 91.588,44.363 90.726,44.363 C90.726,44.363 89.020,44.363 89.020,44.363 C88.972,44.325 88.914,44.301 88.849,44.301 C88.803,44.301 88.746,44.326 88.693,44.363 C88.693,44.363 87.564,44.363 87.564,44.363 C86.702,44.363 86.175,43.958 85.983,43.191 C85.983,43.191 81.337,25.202 81.337,25.202 C81.241,24.886 80.810,24.931 80.810,25.246 C80.810,25.246 80.810,43.011 80.810,43.011 C80.810,43.867 80.331,44.363 79.373,44.363 C79.373,44.363 74.008,44.363 74.008,44.363 C73.049,44.363 72.570,43.867 72.570,43.011 C72.570,43.011 72.570,14.155 72.570,14.155 C72.570,13.253 73.049,12.803 74.008,12.803 C74.008,12.803 83.924,12.803 83.924,12.803 C84.786,12.803 85.265,13.253 85.456,14.020 C85.456,14.020 88.858,27.140 88.858,27.140 C88.953,27.591 89.336,27.591 89.432,27.140 C89.432,27.140 92.834,14.020 92.834,14.020 C93.025,13.253 93.504,12.803 94.367,12.803 C94.367,12.803 104.283,12.803 104.283,12.803 C105.241,12.803 105.719,13.253 105.719,14.155 C105.719,14.155 105.719,43.011 105.719,43.011 C105.719,43.867 105.241,44.363 104.283,44.363 ZM99.889,27.952 C99.789,27.922 99.700,28.025 99.700,28.171 C99.700,28.317 99.789,28.416 99.889,28.382 C99.992,28.347 100.079,28.247 100.079,28.163 C100.079,28.079 99.992,27.983 99.889,27.952 ZM100.681,14.175 C100.488,14.025 100.397,14.036 100.225,14.230 C100.048,14.431 100.061,14.492 100.302,14.578 C100.698,14.720 100.987,14.414 100.681,14.175 ZM100.802,23.551 C100.647,23.551 100.557,23.636 100.596,23.746 C100.706,24.054 101.077,24.104 101.077,23.811 C101.077,23.665 100.957,23.551 100.802,23.551 ZM102.283,22.579 C102.191,22.579 102.111,22.692 102.111,22.822 C102.111,22.952 102.191,23.065 102.283,23.065 C102.375,23.065 102.455,22.952 102.455,22.822 C102.455,22.692 102.375,22.579 102.283,22.579 ZM102.714,26.631 C102.851,26.631 102.972,26.563 102.972,26.485 C102.972,26.275 102.700,26.125 102.559,26.258 C102.361,26.445 102.438,26.631 102.714,26.631 ZM102.972,20.633 C102.972,20.536 102.903,20.471 102.800,20.471 C102.696,20.471 102.628,20.536 102.628,20.633 C102.628,20.731 102.696,20.796 102.800,20.796 C102.903,20.796 102.972,20.731 102.972,20.633 ZM102.843,14.514 C102.716,14.471 102.628,14.587 102.628,14.798 C102.628,15.008 102.716,15.125 102.843,15.081 C102.959,15.042 103.058,14.911 103.058,14.798 C103.058,14.684 102.959,14.553 102.843,14.514 ZM65.147,44.363 C65.147,44.363 59.877,44.363 59.877,44.363 C58.967,44.363 58.440,43.867 58.440,43.011 C58.440,43.011 58.440,14.155 58.440,14.155 C58.440,13.745 58.554,13.434 58.758,13.210 C58.803,13.294 58.891,13.355 58.975,13.355 C59.069,13.355 59.165,13.282 59.199,13.185 C59.230,13.099 59.131,13.025 58.988,13.017 C59.219,12.876 59.517,12.803 59.877,12.803 C59.877,12.803 65.147,12.803 65.147,12.803 C66.104,12.803 66.584,13.253 66.584,14.155 C66.584,14.155 66.584,43.011 66.584,43.011 C66.584,43.867 66.104,44.363 65.147,44.363 ZM59.337,43.271 C59.135,43.462 59.208,43.652 59.483,43.652 C59.621,43.652 59.742,43.539 59.742,43.409 C59.742,43.150 59.540,43.081 59.337,43.271 ZM60.603,32.953 C60.510,32.953 60.410,33.012 60.354,33.099 C60.229,33.291 60.551,33.487 60.775,33.356 C60.968,33.243 60.844,32.953 60.603,32.953 ZM62.236,32.143 C62.108,31.948 61.857,31.940 61.733,32.127 C61.678,32.210 61.740,32.353 61.878,32.460 C62.139,32.664 62.416,32.418 62.236,32.143 ZM63.557,31.268 C63.458,31.214 63.323,31.251 63.259,31.349 C63.100,31.592 63.331,31.747 63.548,31.543 C63.669,31.430 63.672,31.329 63.557,31.268 ZM65.012,13.015 C64.857,13.015 64.737,13.128 64.737,13.274 C64.737,13.420 64.827,13.505 64.943,13.468 C65.271,13.364 65.324,13.015 65.012,13.015 ZM51.016,44.363 C51.016,44.363 45.651,44.363 45.651,44.363 C44.741,44.363 44.214,43.867 44.214,43.011 C44.214,43.011 44.214,35.887 44.214,35.887 C44.214,34.985 43.735,34.534 42.777,34.534 C42.777,34.534 38.178,34.534 38.178,34.534 C37.268,34.534 36.741,34.985 36.741,35.887 C36.741,35.887 36.741,43.011 36.741,43.011 C36.741,43.867 36.262,44.363 35.304,44.363 C35.304,44.363 29.939,44.363 29.939,44.363 C29.029,44.363 28.502,43.867 28.502,43.011 C28.502,43.011 28.502,36.945 28.502,36.945 C28.749,37.074 28.903,36.865 28.691,36.666 C28.621,36.600 28.557,36.576 28.502,36.584 C28.502,36.584 28.502,25.295 28.502,25.295 C28.514,25.306 28.523,25.317 28.536,25.328 C28.797,25.531 29.074,25.286 28.894,25.010 C28.798,24.863 28.631,24.824 28.502,24.893 C28.502,24.893 28.502,14.155 28.502,14.155 C28.502,13.253 28.981,12.803 29.939,12.803 C29.939,12.803 35.304,12.803 35.304,12.803 C36.215,12.803 36.741,13.299 36.741,14.155 C36.741,14.155 36.741,21.955 36.741,21.955 C36.645,21.935 36.562,22.033 36.562,22.173 C36.562,22.314 36.645,22.409 36.741,22.385 C36.741,22.385 36.741,25.427 36.741,25.427 C36.741,26.284 37.268,26.780 38.178,26.780 C38.178,26.780 42.777,26.780 42.777,26.780 C43.735,26.780 44.214,26.284 44.214,25.427 C44.214,25.427 44.214,14.155 44.214,14.155 C44.214,13.299 44.741,12.803 45.651,12.803 C45.651,12.803 51.016,12.803 51.016,12.803 C51.974,12.803 52.453,13.253 52.453,14.155 C52.453,14.155 52.453,43.011 52.453,43.011 C52.453,43.867 51.974,44.363 51.016,44.363 ZM36.252,41.902 C36.407,41.756 36.409,41.660 36.260,41.521 C36.109,41.378 36.036,41.399 35.949,41.610 C35.803,41.966 35.990,42.148 36.252,41.902 ZM35.113,31.819 C35.216,31.819 35.285,31.754 35.285,31.657 C35.285,31.559 35.216,31.495 35.113,31.495 C35.009,31.495 34.941,31.559 34.941,31.657 C34.941,31.754 35.009,31.819 35.113,31.819 ZM35.408,29.127 C35.473,29.066 35.528,28.917 35.528,28.804 C35.528,28.560 35.078,28.499 34.931,28.723 C34.813,28.901 35.252,29.272 35.408,29.127 ZM35.528,23.065 C35.528,22.979 35.408,22.903 35.270,22.903 C35.132,22.903 35.012,22.979 35.012,23.065 C35.012,23.152 35.132,23.227 35.270,23.227 C35.408,23.227 35.528,23.152 35.528,23.065 ZM28.826,37.168 C28.671,37.168 28.566,37.248 28.602,37.338 C28.642,37.436 28.741,37.509 28.835,37.509 C28.928,37.509 29.024,37.436 29.059,37.338 C29.091,37.248 28.981,37.168 28.826,37.168 ZM29.414,37.817 C29.276,37.817 29.156,37.930 29.156,38.060 C29.156,38.189 29.276,38.303 29.414,38.303 C29.552,38.303 29.673,38.189 29.673,38.060 C29.673,37.930 29.552,37.817 29.414,37.817 ZM29.931,41.869 C30.069,41.869 30.189,41.756 30.189,41.626 C30.189,41.496 30.069,41.383 29.931,41.383 C29.793,41.383 29.673,41.496 29.673,41.626 C29.673,41.756 29.793,41.869 29.931,41.869 ZM29.793,24.135 C29.630,24.289 29.828,24.524 30.120,24.524 C30.249,24.524 30.361,24.411 30.361,24.281 C30.361,24.038 29.996,23.944 29.793,24.135 ZM30.463,18.688 C30.290,18.688 30.085,18.765 30.028,18.850 C29.870,19.089 30.273,19.492 30.566,19.387 C30.942,19.252 30.859,18.688 30.463,18.688 ZM31.567,23.227 C31.464,23.227 31.395,23.292 31.395,23.389 C31.395,23.487 31.464,23.551 31.567,23.551 C31.670,23.551 31.739,23.487 31.739,23.389 C31.739,23.292 31.670,23.227 31.567,23.227 ZM33.132,34.575 C32.994,34.575 32.874,34.650 32.874,34.737 C32.874,34.823 32.994,34.899 33.132,34.899 C33.270,34.899 33.390,34.823 33.390,34.737 C33.390,34.650 33.270,34.575 33.132,34.575 ZM33.425,32.475 C33.464,32.573 33.564,32.645 33.657,32.645 C33.751,32.645 33.847,32.573 33.881,32.475 C33.913,32.385 33.804,32.305 33.649,32.305 C33.494,32.305 33.388,32.385 33.425,32.475 ZM33.892,17.878 C33.754,17.878 33.634,17.991 33.634,18.121 C33.634,18.251 33.754,18.364 33.892,18.364 C34.030,18.364 34.151,18.251 34.151,18.121 C34.151,17.991 34.030,17.878 33.892,17.878 ZM33.553,29.533 C33.435,29.711 33.874,30.083 34.030,29.937 C34.095,29.877 34.151,29.728 34.151,29.614 C34.151,29.371 33.700,29.310 33.553,29.533 ZM34.667,37.006 C34.771,37.006 34.839,36.941 34.839,36.844 C34.839,36.747 34.771,36.682 34.667,36.682 C34.564,36.682 34.495,36.747 34.495,36.844 C34.495,36.941 34.564,37.006 34.667,37.006 ZM34.839,19.175 C34.747,19.175 34.647,19.233 34.590,19.320 C34.466,19.512 34.788,19.708 35.012,19.577 C35.205,19.464 35.081,19.175 34.839,19.175 ZM35.356,16.905 C35.272,16.905 35.148,16.986 35.085,17.083 C34.904,17.359 35.304,17.668 35.546,17.440 C35.739,17.258 35.615,16.905 35.356,16.905 ZM35.477,37.914 C35.270,38.108 35.339,38.303 35.615,38.303 C35.752,38.303 35.873,38.189 35.873,38.060 C35.873,37.800 35.675,37.727 35.477,37.914 ZM35.974,33.115 C36.077,33.115 36.146,33.051 36.146,32.953 C36.146,32.856 36.077,32.791 35.974,32.791 C35.871,32.791 35.802,32.856 35.802,32.953 C35.802,33.051 35.871,33.115 35.974,33.115 ZM35.908,30.068 C36.018,30.376 36.390,30.426 36.390,30.133 C36.390,29.987 36.269,29.873 36.114,29.873 C35.959,29.873 35.869,29.959 35.908,30.068 ZM36.235,18.388 C36.134,18.358 36.045,18.461 36.045,18.607 C36.045,18.753 36.134,18.852 36.235,18.818 C36.338,18.783 36.424,18.683 36.424,18.599 C36.424,18.515 36.338,18.419 36.235,18.388 ZM36.480,24.216 C36.344,24.005 36.102,23.982 35.977,24.167 C35.929,24.239 35.960,24.402 36.045,24.532 C36.163,24.710 36.248,24.722 36.398,24.581 C36.502,24.483 36.541,24.309 36.480,24.216 ZM36.491,30.522 C36.399,30.522 36.318,30.635 36.318,30.765 C36.318,30.895 36.399,31.008 36.491,31.008 C36.583,31.008 36.663,30.895 36.663,30.765 C36.663,30.635 36.583,30.522 36.491,30.522 ZM36.491,42.193 C36.399,42.193 36.318,42.307 36.318,42.437 C36.318,42.566 36.399,42.680 36.491,42.680 C36.583,42.680 36.663,42.566 36.663,42.437 C36.663,42.307 36.583,42.193 36.491,42.193 ZM37.079,31.332 C36.975,31.332 36.906,31.397 36.906,31.495 C36.906,31.592 36.975,31.657 37.079,31.657 C37.182,31.657 37.251,31.592 37.251,31.495 C37.251,31.397 37.182,31.332 37.079,31.332 ZM37.492,29.063 C37.337,29.063 37.247,29.148 37.286,29.257 C37.396,29.565 37.767,29.615 37.767,29.322 C37.767,29.176 37.647,29.063 37.492,29.063 ZM40.796,27.928 C40.693,27.928 40.624,27.993 40.624,28.090 C40.624,28.188 40.693,28.252 40.796,28.252 C40.900,28.252 40.969,28.188 40.969,28.090 C40.969,27.993 40.900,27.928 40.796,27.928 ZM42.605,30.684 C42.467,30.684 42.346,30.760 42.346,30.846 C42.346,30.933 42.467,31.008 42.605,31.008 C42.743,31.008 42.863,30.933 42.863,30.846 C42.863,30.760 42.743,30.684 42.605,30.684 ZM43.450,28.382 C43.305,28.163 42.863,28.236 42.863,28.479 C42.863,28.820 43.224,28.984 43.396,28.723 C43.471,28.609 43.496,28.452 43.450,28.382 ZM49.615,38.270 C49.942,38.166 49.995,37.817 49.684,37.817 C49.529,37.817 49.408,37.930 49.408,38.076 C49.408,38.222 49.498,38.307 49.615,38.270 ZM49.236,28.901 C49.328,28.901 49.408,28.787 49.408,28.658 C49.408,28.528 49.328,28.414 49.236,28.414 C49.144,28.414 49.064,28.528 49.064,28.658 C49.064,28.787 49.144,28.901 49.236,28.901 ZM47.135,43.523 C47.249,43.631 47.347,43.620 47.427,43.490 C47.498,43.377 47.476,43.228 47.376,43.134 C47.261,43.026 47.163,43.036 47.083,43.166 C47.013,43.280 47.034,43.428 47.135,43.523 ZM45.791,43.977 C45.688,43.977 45.619,44.041 45.619,44.139 C45.619,44.236 45.688,44.301 45.791,44.301 C45.894,44.301 45.963,44.236 45.963,44.139 C45.963,44.041 45.894,43.977 45.791,43.977 ZM47.341,37.168 C47.257,37.168 47.133,37.249 47.070,37.346 C46.889,37.622 47.289,37.931 47.531,37.703 C47.724,37.521 47.600,37.168 47.341,37.168 ZM48.220,38.651 C48.119,38.621 48.030,38.724 48.030,38.870 C48.030,39.016 48.119,39.115 48.220,39.081 C48.323,39.046 48.409,38.946 48.409,38.862 C48.409,38.778 48.323,38.682 48.220,38.651 ZM48.638,13.323 C48.521,13.501 48.959,13.873 49.115,13.727 C49.180,13.666 49.236,13.517 49.236,13.404 C49.236,13.160 48.785,13.099 48.638,13.323 ZM49.408,22.741 C49.305,22.741 49.236,22.806 49.236,22.903 C49.236,23.000 49.305,23.065 49.408,23.065 C49.511,23.065 49.580,23.000 49.580,22.903 C49.580,22.806 49.511,22.741 49.408,22.741 ZM49.770,26.169 C49.669,26.139 49.580,26.242 49.580,26.388 C49.580,26.534 49.669,26.633 49.770,26.599 C49.873,26.564 49.959,26.464 49.959,26.380 C49.959,26.296 49.873,26.200 49.770,26.169 ZM52.353,21.331 C52.547,21.148 52.422,20.796 52.164,20.796 C52.079,20.796 51.956,20.877 51.892,20.974 C51.712,21.249 52.111,21.558 52.353,21.331 ZM8.240,25.337 C8.240,25.337 8.240,31.829 8.240,31.829 C8.240,35.301 8.479,37.420 12.024,37.420 C14.659,37.420 15.377,36.248 15.665,34.174 C15.809,33.227 16.575,32.641 17.533,32.866 C17.533,32.866 22.946,33.993 22.946,33.993 C23.617,34.129 24.048,34.625 24.000,35.301 C23.885,37.351 23.271,40.482 20.612,42.667 C20.610,42.660 20.613,42.654 20.610,42.647 C20.500,42.339 20.129,42.289 20.129,42.582 C20.129,42.724 20.243,42.834 20.392,42.840 C19.653,43.409 18.765,43.907 17.698,44.295 C17.659,44.206 17.565,44.139 17.459,44.139 C17.321,44.139 17.201,44.252 17.201,44.382 C17.201,44.408 17.209,44.433 17.218,44.457 C15.798,44.907 14.091,45.175 12.024,45.175 C3.979,45.175 1.300,41.168 0.421,37.774 C0.449,37.788 0.479,37.795 0.512,37.784 C0.615,37.749 0.701,37.649 0.701,37.565 C0.701,37.481 0.615,37.385 0.512,37.355 C0.441,37.333 0.377,37.381 0.344,37.461 C0.054,36.196 0.001,35.039 0.000,34.238 C0.021,34.243 0.042,34.250 0.064,34.250 C0.201,34.250 0.322,34.137 0.322,34.007 C0.322,33.877 0.201,33.764 0.064,33.764 C0.042,33.764 0.021,33.771 0.000,33.777 C0.000,33.777 0.000,22.947 0.000,22.947 C0.000,19.971 0.671,11.991 12.024,11.991 C22.227,11.991 23.808,18.438 24.000,21.910 C24.048,22.541 23.617,23.037 22.946,23.172 C22.946,23.172 17.919,24.238 17.919,24.238 C17.924,24.228 17.931,24.219 17.935,24.208 C17.967,24.118 17.858,24.038 17.702,24.038 C17.547,24.038 17.442,24.118 17.479,24.208 C17.494,24.246 17.520,24.278 17.550,24.306 C16.584,24.440 15.852,23.823 15.713,22.902 C15.473,20.918 14.611,19.746 12.024,19.746 C11.569,19.746 11.170,19.782 10.817,19.850 C10.819,19.840 10.828,19.834 10.828,19.823 C10.828,19.726 10.759,19.661 10.656,19.661 C10.553,19.661 10.484,19.726 10.484,19.823 C10.484,19.864 10.502,19.896 10.524,19.923 C8.495,20.471 8.256,22.298 8.242,25.011 C8.140,25.013 8.072,25.076 8.072,25.172 C8.072,25.268 8.140,25.330 8.240,25.333 C8.240,25.334 8.240,25.335 8.240,25.337 ZM20.163,36.852 C20.202,36.949 20.302,37.022 20.396,37.022 C20.489,37.022 20.585,36.949 20.619,36.852 C20.651,36.762 20.542,36.682 20.387,36.682 C20.232,36.682 20.127,36.762 20.163,36.852 ZM17.201,17.878 C17.304,17.878 17.373,17.813 17.373,17.716 C17.373,17.618 17.304,17.554 17.201,17.554 C17.097,17.554 17.029,17.618 17.029,17.716 C17.029,17.813 17.097,17.878 17.201,17.878 ZM17.117,17.278 C17.311,17.096 17.186,16.743 16.927,16.743 C16.843,16.743 16.719,16.824 16.656,16.921 C16.475,17.197 16.875,17.506 17.117,17.278 ZM10.641,17.171 C10.968,17.294 11.146,17.166 10.989,16.921 C10.853,16.711 10.605,16.703 10.472,16.905 C10.412,16.996 10.486,17.113 10.641,17.171 ZM10.092,15.868 C10.200,15.601 10.073,15.446 9.745,15.446 C9.622,15.446 9.521,15.592 9.521,15.770 C9.521,16.143 9.951,16.216 10.092,15.868 ZM8.624,16.532 C8.659,16.354 8.580,16.257 8.402,16.257 C8.247,16.257 8.150,16.363 8.180,16.500 C8.259,16.856 8.557,16.878 8.624,16.532 ZM0.925,35.547 C1.063,35.547 1.183,35.479 1.183,35.401 C1.183,35.190 0.911,35.041 0.770,35.174 C0.572,35.361 0.649,35.547 0.925,35.547 ZM0.405,20.163 C0.247,20.408 0.425,20.536 0.753,20.413 C0.908,20.355 0.982,20.238 0.922,20.147 C0.789,19.945 0.541,19.953 0.405,20.163 ZM1.097,23.551 C0.959,23.551 0.839,23.665 0.839,23.795 C0.839,23.924 0.959,24.038 1.097,24.038 C1.235,24.038 1.355,23.924 1.355,23.795 C1.355,23.665 1.235,23.551 1.097,23.551 ZM1.097,29.387 C0.959,29.387 0.839,29.463 0.839,29.549 C0.839,29.636 0.959,29.711 1.097,29.711 C1.235,29.711 1.355,29.636 1.355,29.549 C1.355,29.463 1.235,29.387 1.097,29.387 ZM1.287,38.741 C1.088,38.927 1.166,39.113 1.441,39.113 C1.579,39.113 1.700,39.045 1.700,38.967 C1.700,38.757 1.428,38.607 1.287,38.741 ZM2.079,36.487 C1.964,36.379 1.866,36.390 1.786,36.520 C1.716,36.633 1.737,36.782 1.838,36.876 C1.952,36.984 2.050,36.974 2.130,36.844 C2.201,36.730 2.179,36.582 2.079,36.487 ZM2.596,38.011 C2.706,38.319 3.078,38.369 3.078,38.076 C3.078,37.930 2.957,37.817 2.802,37.817 C2.647,37.817 2.557,37.902 2.596,38.011 ZM2.974,20.471 C2.819,20.471 2.729,20.557 2.768,20.666 C2.879,20.974 3.250,21.024 3.250,20.731 C3.250,20.585 3.129,20.471 2.974,20.471 ZM3.198,35.644 C2.992,35.839 3.060,36.033 3.336,36.033 C3.474,36.033 3.594,35.920 3.594,35.790 C3.594,35.531 3.396,35.458 3.198,35.644 ZM4.283,37.006 C4.180,37.006 4.111,37.071 4.111,37.168 C4.111,37.265 4.180,37.330 4.283,37.330 C4.387,37.330 4.456,37.265 4.456,37.168 C4.456,37.071 4.387,37.006 4.283,37.006 ZM5.506,20.885 C5.423,20.837 5.266,20.893 5.166,21.006 C4.954,21.248 5.076,21.444 5.437,21.444 C5.696,21.444 5.747,21.025 5.506,20.885 ZM5.437,36.131 C5.274,36.285 5.472,36.520 5.765,36.520 C5.893,36.520 6.006,36.406 6.006,36.277 C6.006,36.033 5.640,35.940 5.437,36.131 ZM7.297,17.878 C7.142,17.878 7.037,17.958 7.074,18.048 C7.113,18.145 7.213,18.218 7.306,18.218 C7.399,18.218 7.496,18.145 7.530,18.048 C7.562,17.958 7.452,17.878 7.297,17.878 ZM7.487,27.231 C7.289,27.418 7.366,27.604 7.642,27.604 C7.780,27.604 7.900,27.536 7.900,27.458 C7.900,27.247 7.628,27.098 7.487,27.231 ZM7.818,42.356 C7.637,42.631 7.914,42.877 8.176,42.673 C8.314,42.566 8.375,42.423 8.320,42.339 C8.196,42.153 7.945,42.161 7.818,42.356 ZM287.235,36.608 C287.235,36.608 292.601,36.608 292.601,36.608 C293.559,36.608 294.038,37.059 294.038,37.961 C294.038,37.961 294.038,43.011 294.038,43.011 C294.038,43.867 293.559,44.363 292.601,44.363 C292.601,44.363 287.235,44.363 287.235,44.363 C286.325,44.363 285.798,43.867 285.798,43.011 C285.798,43.011 285.798,37.961 285.798,37.961 C285.798,37.059 286.325,36.608 287.235,36.608 ZM285.985,37.930 C285.787,38.116 285.865,38.303 286.140,38.303 C286.278,38.303 286.399,38.235 286.399,38.157 C286.399,37.946 286.127,37.797 285.985,37.930 Z" id="path-1" class="cls-2" fill-rule="evenodd"/>
</svg>
