<svg xmlns="http://www.w3.org/2000/svg" xmlns:xlink="http://www.w3.org/1999/xlink" preserveAspectRatio="xMidYMid" width="161" height="45" viewBox="0 0 161 45">
  <defs>
    <style>

      .cls-2 {
        fill: #303030;
      }
    </style>
  </defs>
  <path d="M159.249,24.489 C159.249,24.489 151.831,24.489 151.831,24.489 C152.201,26.203 153.384,27.096 155.060,27.096 C156.095,27.096 156.957,26.774 157.721,26.203 C157.992,26.004 158.239,25.905 158.633,25.905 C159.471,25.905 160.087,26.550 160.087,27.394 C160.087,27.891 159.865,28.263 159.594,28.512 C158.436,29.505 156.933,30.126 155.011,30.126 C151.043,30.126 148.110,27.320 148.110,23.248 C148.110,23.248 148.110,23.198 148.110,23.198 C148.110,19.400 150.797,16.271 154.641,16.271 C159.052,16.271 160.999,19.921 160.999,22.677 C160.999,23.769 160.235,24.489 159.249,24.489 ZM154.641,19.300 C153.088,19.300 152.078,20.418 151.782,22.131 C151.782,22.131 157.426,22.131 157.426,22.131 C157.204,20.443 156.218,19.300 154.641,19.300 ZM144.145,24.489 C144.145,24.489 136.727,24.489 136.727,24.489 C137.097,26.203 138.280,27.096 139.955,27.096 C140.990,27.096 141.852,26.774 142.616,26.203 C142.888,26.004 143.134,25.905 143.528,25.905 C144.366,25.905 144.983,26.550 144.983,27.394 C144.983,27.891 144.761,28.263 144.489,28.512 C143.332,29.505 141.828,30.126 139.906,30.126 C135.938,30.126 133.006,27.320 133.006,23.248 C133.006,23.248 133.006,23.198 133.006,23.198 C133.006,19.400 135.692,16.271 139.536,16.271 C143.947,16.271 145.895,19.921 145.895,22.677 C145.895,23.769 145.130,24.489 144.145,24.489 ZM139.536,19.300 C137.984,19.300 136.974,20.418 136.677,22.131 C136.677,22.131 142.321,22.131 142.321,22.131 C142.099,20.443 141.113,19.300 139.536,19.300 ZM124.407,30.076 C122.140,30.076 119.848,29.381 117.925,27.990 C117.507,27.692 117.211,27.146 117.211,26.550 C117.211,25.557 118.000,24.787 118.986,24.787 C119.478,24.787 119.823,24.961 120.070,25.135 C121.376,26.103 122.805,26.699 124.481,26.699 C126.033,26.699 126.970,26.078 126.970,25.060 C126.970,25.060 126.970,25.011 126.970,25.011 C126.970,24.042 126.378,23.546 123.495,22.801 C120.020,21.907 117.778,20.939 117.778,17.488 C117.778,17.488 117.778,17.438 117.778,17.438 C117.778,14.285 120.292,12.200 123.816,12.200 C125.910,12.200 127.734,12.746 129.286,13.739 C129.705,13.987 130.124,14.509 130.124,15.253 C130.124,16.247 129.335,17.016 128.350,17.016 C127.980,17.016 127.684,16.917 127.388,16.743 C126.132,15.998 124.949,15.576 123.766,15.576 C122.312,15.576 121.548,16.247 121.548,17.091 C121.548,17.091 121.548,17.140 121.548,17.140 C121.548,18.282 122.288,18.655 125.269,19.425 C128.769,20.343 130.740,21.609 130.740,24.638 C130.740,24.638 130.740,24.688 130.740,24.688 C130.740,28.139 128.128,30.076 124.407,30.076 ZM118.670,31.828 C118.670,31.828 113.630,38.355 113.630,38.355 C113.630,38.355 107.582,35.089 107.582,35.089 C105.166,38.791 101.900,41.753 97.293,43.186 C89.671,45.558 82.557,42.875 80.379,35.769 C80.379,35.769 80.344,35.654 80.344,35.654 C78.781,30.554 80.404,26.095 84.707,22.246 C81.930,20.097 80.304,17.841 79.461,15.090 C79.461,15.090 79.426,14.975 79.426,14.975 C77.740,9.475 80.574,3.069 88.253,0.680 C95.021,-1.426 100.827,1.664 102.548,7.280 C102.548,7.280 102.583,7.395 102.583,7.395 C104.234,12.781 101.787,16.995 97.436,20.482 C97.436,20.482 104.360,24.166 104.360,24.166 C105.035,21.696 105.623,18.940 106.120,16.086 C106.120,16.086 113.635,17.639 113.635,17.639 C112.960,20.925 112.167,24.435 111.002,27.748 C111.002,27.748 118.670,31.828 118.670,31.828 ZM95.120,10.281 C95.120,10.281 95.085,10.167 95.085,10.167 C94.382,7.874 92.407,6.919 90.189,7.610 C87.857,8.335 86.831,10.475 87.568,12.882 C87.568,12.882 87.603,12.996 87.603,12.996 C88.148,14.773 89.235,15.878 91.464,17.256 C94.529,14.859 95.893,12.803 95.120,10.281 ZM91.136,26.146 C88.941,28.335 88.457,30.619 89.055,32.568 C89.055,32.568 89.090,32.682 89.090,32.682 C89.950,35.490 92.862,36.656 96.104,35.647 C98.094,35.028 99.764,33.567 101.146,31.568 C101.146,31.568 91.136,26.146 91.136,26.146 ZM72.617,30.076 C70.621,30.076 69.389,29.157 68.502,28.090 C68.502,28.090 68.502,32.062 68.502,32.062 C68.502,33.105 67.664,33.949 66.629,33.949 C65.594,33.949 64.756,33.105 64.756,32.062 C64.756,32.062 64.756,18.258 64.756,18.258 C64.756,17.215 65.594,16.371 66.629,16.371 C67.664,16.371 68.502,17.215 68.502,18.258 C68.502,18.258 68.502,18.431 68.502,18.431 C69.414,17.190 70.670,16.271 72.617,16.271 C75.698,16.271 78.630,18.705 78.630,23.149 C78.630,23.149 78.630,23.198 78.630,23.198 C78.630,27.643 75.747,30.076 72.617,30.076 ZM74.884,23.149 C74.884,20.939 73.406,19.474 71.656,19.474 C69.906,19.474 68.453,20.939 68.453,23.149 C68.453,23.149 68.453,23.198 68.453,23.198 C68.453,25.408 69.906,26.873 71.656,26.873 C73.406,26.873 74.884,25.433 74.884,23.198 C74.884,23.198 74.884,23.149 74.884,23.149 ZM59.633,29.976 C58.598,29.976 57.760,29.132 57.760,28.090 C57.760,28.090 57.760,22.404 57.760,22.404 C57.760,20.616 56.971,19.698 55.567,19.698 C54.162,19.698 53.299,20.616 53.299,22.404 C53.299,22.404 53.299,28.090 53.299,28.090 C53.299,29.132 52.461,29.976 51.426,29.976 C50.391,29.976 49.553,29.132 49.553,28.090 C49.553,28.090 49.553,22.404 49.553,22.404 C49.553,20.616 48.765,19.698 47.360,19.698 C45.956,19.698 45.093,20.616 45.093,22.404 C45.093,22.404 45.093,28.090 45.093,28.090 C45.093,29.132 44.255,29.976 43.220,29.976 C42.185,29.976 41.348,29.132 41.348,28.090 C41.348,28.090 41.348,18.258 41.348,18.258 C41.348,17.215 42.185,16.371 43.220,16.371 C44.255,16.371 45.093,17.215 45.093,18.258 C45.093,18.258 45.093,18.406 45.093,18.406 C45.956,17.289 47.089,16.271 48.987,16.271 C50.712,16.271 52.018,17.041 52.708,18.382 C53.866,17.016 55.246,16.271 57.045,16.271 C59.830,16.271 61.506,17.960 61.506,21.162 C61.506,21.162 61.506,28.090 61.506,28.090 C61.506,29.132 60.668,29.976 59.633,29.976 ZM35.952,15.179 C34.769,15.179 33.857,14.484 33.857,13.391 C33.857,13.391 33.857,13.342 33.857,13.342 C33.857,12.249 34.769,11.579 35.952,11.579 C37.134,11.579 38.046,12.249 38.046,13.342 C38.046,13.342 38.046,13.391 38.046,13.391 C38.046,14.484 37.134,15.179 35.952,15.179 ZM28.782,29.976 C27.747,29.976 26.909,29.132 26.909,28.090 C26.909,28.090 26.909,22.404 26.909,22.404 C26.909,20.616 26.072,19.698 24.642,19.698 C23.213,19.698 22.301,20.616 22.301,22.404 C22.301,22.404 22.301,28.090 22.301,28.090 C22.301,29.132 21.463,29.976 20.428,29.976 C19.393,29.976 18.555,29.132 18.555,28.090 C18.555,28.090 18.555,13.441 18.555,13.441 C18.555,12.398 19.393,11.554 20.428,11.554 C21.463,11.554 22.301,12.398 22.301,13.441 C22.301,13.441 22.301,18.406 22.301,18.406 C23.164,17.289 24.273,16.271 26.170,16.271 C29.004,16.271 30.655,18.158 30.655,21.212 C30.655,21.212 30.655,28.090 30.655,28.090 C30.655,29.132 29.817,29.976 28.782,29.976 ZM8.971,26.600 C10.573,26.600 11.633,26.103 12.717,25.234 C13.012,24.986 13.406,24.812 13.850,24.812 C14.811,24.812 15.625,25.607 15.625,26.575 C15.625,27.171 15.329,27.643 14.984,27.940 C13.431,29.306 11.608,30.126 8.848,30.126 C3.771,30.126 0.001,26.178 0.001,21.187 C0.001,21.187 0.001,21.138 0.001,21.138 C0.001,16.197 3.697,12.150 8.995,12.150 C11.583,12.150 13.333,12.845 14.762,13.913 C15.156,14.211 15.501,14.757 15.501,15.427 C15.501,16.470 14.664,17.289 13.628,17.289 C13.111,17.289 12.766,17.091 12.495,16.917 C11.435,16.122 10.326,15.676 8.971,15.676 C6.063,15.676 3.968,18.109 3.968,21.088 C3.968,21.088 3.968,21.138 3.968,21.138 C3.968,24.117 6.014,26.600 8.971,26.600 ZM35.952,16.371 C36.987,16.371 37.825,17.215 37.825,18.258 C37.825,18.258 37.825,28.090 37.825,28.090 C37.825,29.132 36.987,29.976 35.952,29.976 C34.916,29.976 34.079,29.132 34.079,28.090 C34.079,28.090 34.079,18.258 34.079,18.258 C34.079,17.215 34.916,16.371 35.952,16.371 Z" id="path-1" class="cls-2" fill-rule="evenodd"/>
</svg>
