<?xml version="1.0" encoding="utf-8"?>
<svg xmlns="http://www.w3.org/2000/svg"
	xmlns:xlink="http://www.w3.org/1999/xlink"
	width="12px" height="12px">
<path opacity="0.54" fill="rgb(43,43,43)" fill-rule="evenodd" d="M 11.66 10.24C 11.66 10.24 10.24 11.66 10.24 11.66 10.24 11.66 6 7.41 6 7.41 6 7.41 1.76 11.66 1.76 11.66 1.76 11.66 0.34 10.24 0.34 10.24 0.34 10.24 4.59 6 4.59 6 4.59 6 0.34 1.76 0.34 1.76 0.34 1.76 1.76 0.34 1.76 0.34 1.76 0.34 6 4.59 6 4.59 6 4.59 10.24 0.34 10.24 0.34 10.24 0.34 11.66 1.76 11.66 1.76 11.66 1.76 7.41 6 7.41 6 7.41 6 11.66 10.24 11.66 10.24Z"/>
</svg>