<?xml version="1.0" encoding="utf-8"?>
<svg xmlns="http://www.w3.org/2000/svg"
  xmlns:xlink="http://www.w3.org/1999/xlink"
  width="27px" height="21px">
<path fill="#5c5c5c" fill-rule="evenodd" d="M19.56 1.57 C22.42 1.57 24.74 3.92 24.74 6.80 C24.74 12.11 17.15 17.27 13.47 19.23 C9.79 17.27 2.20 12.11 2.20 6.80 C2.20 3.92 4.52 1.57 7.38 1.57 C9.38 1.57 11.22 2.75 12.07 4.58 C12.07 4.58 13.47 7.57 13.47 7.57 C13.47 7.57 14.87 4.58 14.87 4.58 C15.72 2.75 17.56 1.57 19.56 1.57 M19.56 0.02 C16.87 0.02 14.55 1.61 13.47 3.91 C12.40 1.61 10.07 0.02 7.38 0.02 C3.66 0.02 0.65 3.06 0.65 6.80 C0.65 14.69 13.47 20.98 13.47 20.98 C13.47 20.98 26.29 14.69 26.29 6.80 C26.29 3.06 23.28 0.02 19.56 0.02 C19.56 0.02 19.56 0.02 19.56 0.02 Z"/>
</svg>