<!-- +FAV ICON  -->
<svg version="1.1"
	 xmlns="http://www.w3.org/2000/svg" xmlns:xlink="http://www.w3.org/1999/xlink" xmlns:a="http://ns.adobe.com/AdobeSVGViewerExtensions/3.0/"
	 x="0px" y="0px" width="33.2px" height="29px" viewBox="0 0 33.2 29" enable-background="new 0 0 33.2 29" xml:space="preserve">
<defs>
</defs>
<g>
	<path fill="#999999" d="M24.5,2c3.7,0,6.7,3,6.7,6.7c0,6.9-9.7,14.7-14.6,17.9C11.7,23.4,2,15.6,2,8.7C2,5,5,2,8.7,2
		c2.6,0,5,1.5,6.1,3.9l1.8,3.8l1.8-3.8C19.5,3.5,21.9,2,24.5,2 M24.5,0C21,0,18,2,16.6,5c-1.4-3-4.4-5-7.9-5C3.9,0,0,3.9,0,8.7
		C0,18.9,16.6,29,16.6,29S33.2,18.9,33.2,8.7C33.2,3.9,29.3,0,24.5,0L24.5,0z"/>
</g>
</svg>