<?xml version="1.0" encoding="utf-8"?>
<svg xmlns="http://www.w3.org/2000/svg"
	xmlns:xlink="http://www.w3.org/1999/xlink"
	width="29px" height="26px">
<path fill="rgb(181,181,181)" fill-rule="evenodd" d="M23.24 7.25 C23.24 7.25 28.94 12.97 28.94 12.97 C28.94 12.97 23.24 18.68 23.24 18.68 C23.24 18.68 21.81 17.25 21.81 17.25 C21.81 17.25 25.07 13.98 25.07 13.98 C25.07 13.98 16.97 13.98 16.97 13.98 C16.97 13.98 16.97 23.98 16.97 23.98 C16.97 23.98 21.97 23.98 21.97 23.98 C21.97 23.98 21.97 26.00 21.97 26.00 C21.97 26.00 -0.04 26.00 -0.04 26.00 C-0.04 26.00 -0.04 -0.10 -0.04 -0.10 C-0.04 -0.10 21.97 -0.10 21.97 -0.10 C21.97 -0.10 21.97 1.93 21.97 1.93 C21.97 1.93 16.97 1.93 16.97 1.93 C16.97 1.93 16.97 11.96 16.97 11.96 C16.97 11.96 25.07 11.96 25.07 11.96 C25.07 11.96 21.81 8.69 21.81 8.69 C21.81 8.69 23.24 7.25 23.24 7.25 Z M14.98 1.93 C14.98 1.93 1.99 1.93 1.99 1.93 C1.99 1.93 1.99 23.98 1.99 23.98 C1.99 23.98 14.98 23.98 14.98 23.98 C14.98 23.98 14.98 1.93 14.98 1.93 Z M12.97 14.96 C12.97 14.96 3.97 14.96 3.97 14.96 C3.97 14.96 3.97 13.95 3.97 13.95 C3.97 13.95 12.97 13.95 12.97 13.95 C12.97 13.95 12.97 14.96 12.97 14.96 Z M12.97 16.97 C12.97 16.97 3.97 16.97 3.97 16.97 C3.97 16.97 3.97 15.96 3.97 15.96 C3.97 15.96 12.97 15.96 12.97 15.96 C12.97 15.96 12.97 16.97 12.97 16.97 Z M12.97 18.98 C12.97 18.98 3.97 18.98 3.97 18.98 C3.97 18.98 3.97 17.97 3.97 17.97 C3.97 17.97 12.97 17.97 12.97 17.97 C12.97 17.97 12.97 18.98 12.97 18.98 Z M12.97 20.99 C12.97 20.99 3.97 20.99 3.97 20.99 C3.97 20.99 3.97 19.98 3.97 19.98 C3.97 19.98 12.97 19.98 12.97 19.98 C12.97 19.98 12.97 20.99 12.97 20.99 Z M3.97 4.94 C3.97 4.94 12.97 4.94 12.97 4.94 C12.97 4.94 12.97 10.96 12.97 10.96 C12.97 10.96 3.97 10.96 3.97 10.96 C3.97 10.96 3.97 4.94 3.97 4.94 Z M4.98 9.94 C4.98 9.94 11.95 9.94 11.95 9.94 C11.95 9.94 11.95 5.96 11.95 5.96 C11.95 5.96 4.98 5.96 4.98 5.96 C4.98 5.96 4.98 9.94 4.98 9.94 Z"/>
</svg>