<!-- GUIDE ICON  -->
<svg version="1.1"
   xmlns="http://www.w3.org/2000/svg" xmlns:xlink="http://www.w3.org/1999/xlink" xmlns:a="http://ns.adobe.com/AdobeSVGViewerExtensions/3.0/"
   x="0px" y="0px" width="42.6px" height="32px" viewBox="0 0 42.6 32" enable-background="new 0 0 42.6 32" xml:space="preserve">
<defs>
</defs>
<g>
  <g>
    <path fill="#999999" d="M39.1,2c0.9,0,1.5,0.7,1.5,1.5v20.3c0,0.9-0.7,1.5-1.5,1.5H26.2c-1.5,0-3,0.7-3.9,1.9l-1,1.3l-1-1.3
      c-0.9-1.2-2.4-1.9-3.9-1.9H3.5c-0.9,0-1.5-0.7-1.5-1.5V3.5C2,2.7,2.7,2,3.5,2h12.9c1.5,0,3,0.7,3.9,1.9l1,1.3l1-1.3
      C23.2,2.7,24.6,2,26.2,2H39.1 M39.1,0H26.2c-1.8,0-3.6,0.7-4.9,2c-1.3-1.3-3-2-4.9-2H3.5C1.6,0,0,1.6,0,3.5v20.3
      c0,2,1.6,3.5,3.5,3.5h12.9c0.9,0,1.8,0.4,2.3,1.1l1,1.3l1.6,2.1l1.6-2.1l1-1.3c0.5-0.7,1.4-1.1,2.3-1.1h12.9c2,0,3.5-1.6,3.5-3.5
      V3.5C42.6,1.6,41,0,39.1,0L39.1,0z"/>
  </g>
  <line fill="none" stroke="#999999" stroke-miterlimit="10" x1="21.3" y1="4.3" x2="21.3" y2="29.5"/>
</g>
</svg>