<svg xmlns="http://www.w3.org/2000/svg" xmlns:xlink="http://www.w3.org/1999/xlink" preserveAspectRatio="xMidYMid" width="36" height="30" viewBox="0 0 36 30">
  <defs>
    <style>

      .cls-2 {
        fill: #404040;
      }
    </style>
  </defs>
  <path d="M35.794,2.834 C34.483,4.041 32.877,5.484 31.031,7.076 C32.495,9.375 33.343,12.089 33.343,14.997 C33.343,23.281 26.486,29.996 18.029,29.996 C13.495,29.996 9.423,28.065 6.619,24.998 C4.540,26.287 2.676,27.392 1.124,28.286 C0.382,28.713 -0.363,27.739 0.264,27.161 C1.575,25.953 3.180,24.511 5.026,22.918 C3.563,20.619 2.715,17.906 2.715,14.997 C2.715,6.714 9.571,-0.001 18.029,-0.001 C22.563,-0.001 26.635,1.930 29.439,4.996 C31.517,3.708 33.382,2.603 34.933,1.709 C35.675,1.281 36.421,2.256 35.794,2.834 ZM27.077,10.402 C26.556,9.423 25.875,8.539 25.067,7.782 C25.067,7.782 25.067,7.782 25.067,7.782 C23.236,6.068 20.757,5.011 18.029,5.011 C12.407,5.011 7.833,9.491 7.833,14.997 C7.833,16.654 8.249,18.216 8.981,19.592 C9.501,20.572 10.182,21.456 10.990,22.212 C12.822,23.927 15.301,24.984 18.029,24.984 C23.651,24.984 28.225,20.504 28.225,14.997 C28.225,13.341 27.809,11.779 27.077,10.402 ZM18.029,18.747 C15.914,18.747 14.200,17.068 14.200,14.997 C14.200,12.926 15.914,11.248 18.029,11.248 C20.143,11.248 21.857,12.926 21.857,14.997 C21.857,17.068 20.143,18.747 18.029,18.747 Z" id="path-1" class="cls-2" fill-rule="evenodd"/>
</svg>
