<svg xmlns="http://www.w3.org/2000/svg" xmlns:xlink="http://www.w3.org/1999/xlink" preserveAspectRatio="xMidYMid" width="42" height="36" viewBox="0 0 42 36">
  <defs>
    <style>

      .cls-2 {
        fill: #32c388;
      }
    </style>
  </defs>
  <path d="M41.447,8.492 C41.043,8.510 41.130,8.104 41.194,8.054 C41.534,7.784 41.282,7.574 41.179,7.343 C41.045,7.042 40.931,6.702 40.635,6.539 C40.297,6.353 40.542,5.944 40.247,5.741 C39.992,5.566 39.770,5.326 39.581,5.078 C39.487,4.956 39.448,4.818 39.456,4.679 C38.873,4.740 38.982,5.435 38.486,5.415 C37.808,5.388 38.225,4.587 38.835,4.543 C39.224,4.515 39.449,4.420 39.571,4.352 C39.577,4.342 39.580,4.331 39.588,4.320 C39.680,4.195 39.817,4.104 39.916,3.983 C40.151,3.694 40.095,3.164 39.770,3.027 C38.959,2.687 38.262,2.139 37.448,1.800 C37.178,1.687 36.870,1.697 36.626,1.502 C36.470,1.377 36.192,1.358 36.099,1.210 C35.743,0.643 35.204,0.746 34.680,0.734 C34.498,0.730 34.355,0.924 34.293,0.905 C34.118,0.854 34.227,0.639 34.187,0.499 C34.099,0.193 33.748,0.216 33.555,0.028 C33.485,-0.041 33.421,0.089 33.437,0.179 C33.516,0.640 33.302,0.469 33.071,0.371 C32.944,0.317 32.624,0.766 32.680,0.215 C32.689,0.121 32.671,0.026 32.573,0.002 C32.542,-0.005 32.484,0.081 32.443,0.128 C32.279,0.312 32.244,0.601 31.922,0.660 C31.701,0.701 31.445,0.780 31.536,1.142 C31.576,1.301 31.375,1.403 31.258,1.484 C31.154,1.557 31.046,1.421 30.938,1.374 C30.449,1.162 29.950,1.188 29.419,1.273 C29.199,1.308 29.441,1.974 28.996,1.523 C28.868,1.394 28.615,1.592 28.423,1.648 C28.200,1.714 27.980,1.810 27.755,1.863 C27.546,1.912 27.306,1.917 27.099,1.864 C26.704,1.762 26.411,2.064 26.043,2.069 C25.499,2.077 24.982,2.350 24.423,2.251 C24.277,2.225 24.193,2.318 24.114,2.414 C23.820,2.769 23.423,2.692 23.102,2.554 C22.920,2.477 22.760,2.456 22.583,2.441 C22.477,2.432 22.482,2.441 22.244,2.765 C22.173,2.861 22.061,2.996 21.969,2.996 C20.756,2.990 19.690,3.616 18.513,3.791 C17.897,3.881 17.274,4.135 16.691,4.383 C15.508,4.886 14.368,5.473 13.286,6.197 C11.677,7.276 10.158,8.449 8.907,9.921 C8.572,10.315 8.203,10.639 7.815,10.941 C7.467,11.212 7.358,11.585 7.246,11.939 C7.132,12.299 7.092,12.693 7.313,13.089 C7.412,13.266 7.608,13.692 7.085,13.785 C6.959,13.807 7.036,13.917 7.103,13.976 C7.268,14.123 7.425,14.264 7.373,14.526 C7.280,14.999 7.446,15.365 7.830,15.661 C7.995,15.788 8.046,15.985 7.743,16.036 C7.433,16.089 7.531,16.353 7.574,16.471 C7.702,16.828 8.089,17.070 8.115,17.469 C8.141,17.854 8.262,18.192 8.544,18.420 C8.795,18.623 8.583,18.964 8.854,19.161 C8.946,19.227 8.928,19.534 8.869,19.697 C8.788,19.921 8.539,19.766 8.375,19.819 C7.544,20.088 6.713,20.360 5.886,20.641 C4.338,21.168 2.808,21.753 1.200,22.079 C0.631,22.195 0.321,22.608 0.004,23.027 C0.004,23.405 0.004,23.783 0.004,24.160 C0.913,25.375 1.847,26.566 2.966,27.603 C3.359,27.967 3.335,27.999 2.871,28.377 C2.847,28.397 2.828,28.423 2.804,28.443 C2.640,28.581 2.541,28.762 2.765,28.891 C3.083,29.075 3.094,29.515 3.474,29.646 C3.739,29.738 3.350,29.854 3.442,29.954 C3.755,30.291 4.084,30.595 4.597,30.588 C4.830,30.585 4.941,30.537 4.922,30.278 C4.911,30.134 4.903,29.993 4.987,29.835 C5.440,28.985 5.517,28.054 5.475,27.114 C5.457,26.703 5.097,26.453 4.895,26.130 C4.758,25.909 4.355,25.771 4.426,25.534 C4.536,25.168 4.960,25.256 5.244,25.310 C5.537,25.365 5.706,25.030 5.916,25.123 C6.113,25.210 6.281,25.330 6.507,25.293 C6.829,25.241 7.190,25.434 7.478,25.114 C7.534,25.052 7.790,25.056 7.832,25.115 C8.001,25.354 8.108,25.192 8.258,25.109 C8.512,24.968 8.771,24.818 9.047,24.741 C9.193,24.700 9.361,24.397 9.561,24.719 C9.611,24.800 9.778,24.689 9.871,24.592 C10.132,24.318 10.432,24.078 10.663,23.783 C11.017,23.333 11.548,23.592 11.960,23.405 C12.109,23.751 12.378,23.799 12.731,23.804 C12.938,23.807 12.744,23.962 12.689,24.034 C12.215,24.642 11.824,25.295 11.624,26.048 C11.518,26.446 11.454,26.857 11.332,27.250 C11.086,28.046 11.187,28.894 10.846,29.692 C10.538,30.411 10.334,31.192 9.930,31.858 C9.648,32.322 9.661,32.771 9.633,33.252 C9.610,33.636 9.934,33.945 10.128,33.943 C10.516,33.939 10.814,34.195 11.183,34.172 C12.284,34.102 13.286,34.546 14.321,34.805 C15.084,34.996 15.827,35.259 16.521,35.651 C16.689,35.746 16.951,35.661 17.167,35.685 C17.461,35.718 17.757,35.606 18.057,35.837 C18.175,35.929 18.697,36.097 18.739,35.554 C18.741,35.532 18.779,35.508 18.806,35.493 C19.392,35.159 19.386,35.165 18.960,34.707 C18.667,34.392 18.352,34.117 17.936,33.984 C17.824,33.948 17.601,34.031 17.608,33.908 C17.620,33.700 17.845,33.798 17.974,33.799 C18.301,33.800 18.542,33.633 18.770,33.437 C18.879,33.343 18.961,33.217 19.055,33.106 C18.840,33.024 18.593,32.826 18.415,32.876 C17.110,33.244 16.037,33.007 14.844,32.479 C14.308,32.241 14.321,32.224 14.547,31.738 C15.012,30.735 15.490,29.737 15.927,28.721 C16.182,28.128 16.355,27.513 16.463,26.859 C16.622,25.905 16.621,24.936 16.805,23.987 C16.841,23.802 16.993,23.701 17.034,23.507 C17.065,23.359 17.196,23.208 17.196,23.012 C17.197,22.714 17.206,22.436 17.351,22.132 C17.473,21.874 17.481,21.462 17.192,21.186 C17.325,21.063 16.714,20.770 17.302,20.730 C17.445,20.720 17.307,20.585 17.255,20.547 C16.899,20.283 16.881,19.910 16.782,19.507 C16.570,18.636 16.418,17.726 15.926,16.939 C15.820,16.768 15.723,16.574 15.692,16.379 C15.666,16.211 15.583,15.956 15.779,15.864 C16.049,15.736 16.000,16.109 16.103,16.152 C16.448,16.295 16.689,16.451 16.636,16.880 C16.625,16.972 16.747,16.969 16.819,16.885 C17.251,16.382 17.831,16.414 18.419,16.404 C18.715,16.398 18.642,16.625 18.751,16.729 C18.930,16.899 18.829,16.979 18.707,17.071 C18.418,17.289 18.271,17.685 17.853,17.750 C17.810,17.757 17.773,17.902 17.766,17.986 C17.762,18.026 17.847,18.117 17.870,18.110 C18.227,18.007 18.471,18.424 18.834,18.311 C18.949,18.275 19.081,18.303 19.084,18.490 C19.086,18.607 19.034,18.670 18.935,18.680 C18.659,18.709 18.628,18.838 18.780,19.040 C18.835,19.114 18.950,19.206 18.885,19.271 C18.626,19.533 18.824,19.674 19.001,19.832 C19.048,19.873 19.093,19.918 19.134,19.965 C19.359,20.218 19.325,20.306 18.931,20.377 C18.708,20.417 18.652,20.456 18.845,20.623 C18.964,20.725 19.067,20.846 19.181,20.954 C19.286,21.053 19.327,21.185 19.221,21.272 C18.875,21.557 19.289,22.025 18.956,22.298 C18.882,22.358 18.873,22.386 18.959,22.434 C19.446,22.705 19.059,23.211 19.260,23.571 C19.356,23.743 19.161,24.013 19.384,24.178 C19.660,24.383 19.177,24.569 19.347,24.690 C19.662,24.914 19.202,25.213 19.370,25.264 C19.607,25.335 19.721,25.498 19.884,25.626 C19.933,25.665 20.019,25.728 20.010,25.756 C19.981,25.853 19.886,25.865 19.791,25.861 C19.665,25.857 19.538,25.851 19.413,25.865 C19.364,25.870 19.277,25.950 19.281,25.956 C19.332,26.049 19.455,26.013 19.515,26.057 C19.676,26.175 19.400,26.477 19.687,26.556 C19.936,26.625 20.108,26.783 20.276,26.960 C20.482,27.177 20.521,27.329 20.150,27.376 C20.068,27.387 19.989,27.462 20.110,27.550 C20.267,27.664 20.191,27.833 20.216,27.979 C20.245,28.141 20.560,28.346 20.351,28.418 C20.138,28.492 19.959,28.910 19.653,28.600 C19.568,28.514 19.489,28.515 19.454,28.609 C19.274,29.105 18.737,28.709 18.482,29.008 C18.463,29.030 18.425,29.069 18.418,29.064 C18.327,29.009 18.319,28.917 18.325,28.822 C18.344,28.524 18.194,28.351 17.909,28.320 C17.664,28.293 17.402,28.276 17.249,28.543 C17.163,28.695 17.002,28.862 17.018,29.006 C17.086,29.630 16.852,30.212 16.817,30.818 C16.803,31.064 16.819,31.060 17.312,31.369 C17.416,31.435 17.499,31.539 17.581,31.634 C17.925,32.036 18.311,31.968 18.741,31.781 C19.167,31.595 19.638,31.445 20.003,31.203 C20.306,31.003 20.376,31.334 20.628,31.248 C21.338,31.004 21.964,30.644 22.562,30.214 C22.856,30.003 23.185,29.842 23.423,29.551 C23.639,29.289 23.741,29.006 23.817,28.671 C24.093,27.443 23.945,26.203 23.996,24.969 C24.015,24.520 23.860,24.042 24.176,23.627 C24.206,23.588 24.203,23.493 24.177,23.443 C23.885,22.895 24.033,22.368 24.155,21.799 C24.271,21.257 24.196,20.670 24.173,20.104 C24.162,19.818 24.309,19.834 24.513,19.807 C24.756,19.775 24.842,19.457 24.667,19.274 C24.601,19.204 24.397,19.297 24.400,19.136 C24.402,19.034 24.569,19.096 24.637,19.054 C24.764,18.977 24.848,18.831 25.036,18.869 C25.224,18.907 25.266,18.813 25.325,18.627 C25.652,17.597 25.976,16.564 26.624,15.668 C26.753,15.490 26.820,15.311 27.069,15.278 C27.234,15.257 27.203,15.104 27.203,14.983 C27.203,14.892 27.188,14.738 27.280,14.745 C27.438,14.757 27.387,14.923 27.390,15.033 C27.392,15.128 27.391,15.262 27.482,15.267 C27.567,15.271 27.544,15.103 27.587,15.051 C27.889,14.688 27.683,14.152 28.019,13.812 C28.092,13.739 28.142,13.568 28.278,13.634 C28.380,13.683 28.516,13.812 28.513,13.902 C28.489,14.819 28.980,15.659 28.899,16.579 C28.881,16.785 29.009,17.025 28.786,17.191 C28.710,17.247 28.695,17.313 28.774,17.320 C29.048,17.345 29.109,17.489 29.100,17.745 C29.094,17.946 29.025,18.085 28.913,18.241 C28.856,18.320 28.866,18.517 28.928,18.597 C29.064,18.774 29.090,18.518 29.185,18.494 C29.375,18.446 29.497,18.567 29.568,18.698 C29.708,18.954 29.904,19.200 29.847,19.526 C30.391,20.199 30.494,21.090 30.961,21.806 C31.033,21.918 31.058,22.085 31.178,22.184 C31.382,22.352 31.430,22.499 31.213,22.717 C31.105,22.826 31.140,22.965 31.358,23.040 C31.600,23.123 31.925,23.264 31.611,23.617 C31.488,23.756 31.648,23.760 31.681,23.819 C31.854,24.126 31.965,24.566 32.229,24.699 C32.609,24.891 32.197,25.188 32.435,25.335 C32.706,25.503 32.717,25.856 32.957,26.071 C33.136,26.233 33.144,26.577 33.314,26.758 C33.651,27.116 33.598,27.591 33.749,27.999 C33.890,28.380 33.863,28.804 33.650,29.230 C33.512,29.508 33.621,29.910 33.625,30.256 C33.631,30.745 33.618,31.203 33.277,31.632 C33.148,31.794 32.956,32.068 33.047,32.385 C33.106,32.595 33.315,32.783 33.491,32.652 C33.705,32.494 33.938,32.345 34.011,32.040 C34.060,31.837 34.120,31.922 34.197,32.066 C34.392,32.425 34.517,32.812 34.728,33.174 C35.259,34.087 36.136,34.290 37.014,34.542 C37.246,34.609 37.454,34.555 37.404,34.221 C37.370,34.000 37.509,33.966 37.690,33.980 C37.814,33.989 37.971,34.025 38.058,33.967 C38.176,33.889 38.324,33.799 38.347,33.622 C38.367,33.467 38.248,33.390 38.156,33.326 C37.594,32.939 37.019,32.572 36.459,32.183 C36.301,32.073 36.129,31.911 36.529,31.897 C36.618,31.894 36.638,31.818 36.561,31.716 C36.294,31.362 36.205,30.952 36.272,30.517 C36.313,30.254 36.036,30.115 36.068,29.838 C36.123,29.359 36.004,28.855 36.269,28.407 C36.689,27.700 36.394,26.982 36.223,26.312 C35.871,24.927 35.440,23.560 34.979,22.204 C34.932,22.063 34.948,21.898 34.947,21.745 C34.944,21.241 34.936,20.737 34.948,20.234 C34.981,18.772 34.664,17.396 33.975,16.103 C33.764,15.707 33.777,15.700 34.209,15.661 C34.571,15.628 34.618,15.588 34.370,15.296 C33.830,14.661 33.660,13.870 33.478,13.117 C33.328,12.493 33.444,11.806 33.432,11.147 C33.429,10.991 33.531,10.893 33.626,10.854 C34.128,10.650 34.104,10.332 33.860,9.945 C33.831,9.897 33.798,9.816 33.818,9.779 C33.876,9.675 33.955,9.580 34.036,9.491 C34.155,9.361 34.185,9.529 34.231,9.571 C34.440,9.762 34.611,10.004 34.844,10.156 C35.011,10.265 35.365,10.082 35.350,10.490 C35.349,10.512 35.392,10.535 35.414,10.557 C35.677,10.218 36.053,10.440 36.370,10.366 C36.421,9.798 36.961,10.123 37.201,9.907 C37.341,9.781 37.436,9.840 37.597,9.888 C38.245,10.082 38.873,10.342 39.569,10.384 C40.560,10.443 40.850,10.382 41.518,9.752 C41.582,9.691 41.625,9.587 41.746,9.617 C41.746,9.302 41.746,8.988 41.746,8.673 C41.589,8.700 41.554,8.487 41.447,8.492 Z" id="path-1" class="cls-2" fill-rule="evenodd"/>
</svg>
