<svg xmlns="http://www.w3.org/2000/svg" xmlns:xlink="http://www.w3.org/1999/xlink" preserveAspectRatio="xMidYMid" width="27" height="24" viewBox="0 0 27 24">
  <defs>
    <style>

      .cls-2 {
        fill: #27C486;
      }
    </style>
  </defs>
  <path d="M25.703,19.722 C25.703,19.722 14.162,23.768 14.162,23.768 C14.162,23.768 13.524,23.992 13.524,23.992 C13.524,23.992 12.885,23.768 12.885,23.768 C12.885,23.768 1.344,19.722 1.344,19.722 C1.344,19.722 0.010,19.255 0.010,19.255 C0.010,19.255 0.010,17.810 0.010,17.810 C0.010,17.810 0.010,2.836 0.010,2.836 C0.010,2.836 0.010,0.013 0.010,0.013 C0.010,0.013 2.618,0.923 2.618,0.923 C2.618,0.923 13.524,4.725 13.524,4.725 C13.524,4.725 24.428,0.923 24.428,0.923 C24.428,0.923 27.037,0.013 27.037,0.013 C27.037,0.013 27.037,2.836 27.037,2.836 C27.037,2.836 27.037,17.810 27.037,17.810 C27.037,17.810 27.037,19.255 27.037,19.255 C27.037,19.255 25.703,19.722 25.703,19.722 ZM13.030,6.688 C13.030,6.688 1.983,2.836 1.983,2.836 C1.983,2.836 1.983,17.810 1.983,17.810 C1.983,17.810 13.030,21.683 13.030,21.683 C13.030,21.683 13.030,6.688 13.030,6.688 ZM25.064,2.836 C25.064,2.836 14.017,6.688 14.017,6.688 C14.017,6.688 14.017,21.683 14.017,21.683 C14.017,21.683 25.064,17.810 25.064,17.810 C25.064,17.810 25.064,2.836 25.064,2.836 ZM22.566,6.981 C22.566,6.981 16.647,9.004 16.647,9.004 C16.647,9.004 16.647,7.994 16.647,7.994 C16.647,7.994 22.566,5.971 22.566,5.971 C22.566,5.971 22.566,6.981 22.566,6.981 ZM22.566,9.446 C22.566,9.446 16.647,11.469 16.647,11.469 C16.647,11.469 16.647,10.459 16.647,10.459 C16.647,10.459 22.566,8.436 22.566,8.436 C22.566,8.436 22.566,9.446 22.566,9.446 ZM22.566,11.911 C22.566,11.911 16.647,13.934 16.647,13.934 C16.647,13.934 16.647,12.924 16.647,12.924 C16.647,12.924 22.566,10.901 22.566,10.901 C22.566,10.901 22.566,11.911 22.566,11.911 ZM22.566,14.376 C22.566,14.376 16.647,16.399 16.647,16.399 C16.647,16.399 16.647,15.389 16.647,15.389 C16.647,15.389 22.566,13.366 22.566,13.366 C22.566,13.366 22.566,14.376 22.566,14.376 ZM22.566,16.841 C22.566,16.841 16.647,18.864 16.647,18.864 C16.647,18.864 16.647,17.854 16.647,17.854 C16.647,17.854 22.566,15.831 22.566,15.831 C22.566,15.831 22.566,16.841 22.566,16.841 ZM10.563,13.429 C10.563,13.429 4.644,11.406 4.644,11.406 C4.644,11.406 4.644,6.476 4.644,6.476 C4.644,6.476 10.563,8.499 10.563,8.499 C10.563,8.499 10.563,13.429 10.563,13.429 ZM9.577,9.227 C9.577,9.227 5.631,7.878 5.631,7.878 C5.631,7.878 5.631,10.678 5.631,10.678 C5.631,10.678 9.577,12.026 9.577,12.026 C9.577,12.026 9.577,9.227 9.577,9.227 ZM10.563,16.399 C10.563,16.399 4.644,14.376 4.644,14.376 C4.644,14.376 4.644,13.366 4.644,13.366 C4.644,13.366 10.563,15.389 10.563,15.389 C10.563,15.389 10.563,16.399 10.563,16.399 ZM10.563,18.864 C10.563,18.864 4.644,16.841 4.644,16.841 C4.644,16.841 4.644,15.831 4.644,15.831 C4.644,15.831 10.563,17.854 10.563,17.854 C10.563,17.854 10.563,18.864 10.563,18.864 Z" id="path-1" class="cls-2" fill-rule="evenodd"/>
</svg>
